<svg width="40" height="34" viewBox="0 0 40 34" fill="none" xmlns="http://www.w3.org/2000/svg">
<path d="M37.9833 0.0146148C37.813 -0.00487161 37.6414 -0.00487161 37.4711 0.0146148H2.48641C2.26219 0.0184512 2.03945 0.0557835 1.8242 0.125607L19.8788 20.0903L37.9833 0.0146148Z" fill="#DC493C"/>
<path d="M39.8325 1.9431L21.6405 22.0604C21.1723 22.5772 20.5389 22.8673 19.8788 22.8673C19.2186 22.8673 18.5852 22.5772 18.117 22.0604L0.0874617 2.09571C0.0320352 2.32191 0.00264719 2.555 0 2.78941V30.5374C0 31.2733 0.263277 31.9791 0.731912 32.4994C1.20055 33.0198 1.83615 33.3122 2.4989 33.3122H37.4835C38.1463 33.3122 38.7819 33.0198 39.2505 32.4994C39.7192 31.9791 39.9824 31.2733 39.9824 30.5374V2.78941C39.9725 2.50035 39.9219 2.2148 39.8325 1.9431ZM4.21065 30.5374H2.47391V28.5534L11.5574 18.5503L13.3192 20.5065L4.21065 30.5374ZM37.4586 30.5374H35.7093L26.6008 20.5065L28.3625 18.5503L37.4461 28.5534L37.4586 30.5374Z" fill="#DC493C"/>
</svg>
