<svg width="31" height="30" viewBox="0 0 31 30" fill="none" xmlns="http://www.w3.org/2000/svg">
<path d="M30.7317 7.06983C30.5505 7.41748 30.2596 7.50535 29.886 7.50535C20.2049 7.49847 10.5246 7.5 0.843468 7.5C0.185683 7.5 0 7.31357 0 6.65266C0 4.71042 0 2.76895 0 0.827476C0 0.217757 0.211243 0.00305623 0.813398 0.00305623C10.5148 0.00305623 20.2154 0.00382029 29.9161 0C30.2912 0 30.5814 0.106968 30.7317 0.480593V7.06983ZM29.5146 6.26681V1.24465H1.21709V6.26605H29.5146V6.26681Z" fill="white"/>
<path d="M30.7317 29.5194C30.5866 29.8777 30.3122 30 29.9454 30C24.0231 29.9969 18.1015 29.9977 12.1792 29.9969C11.6108 29.9969 11.3936 29.7792 11.3928 29.2115C11.3913 27.2287 11.3906 25.246 11.3928 23.264C11.3928 22.7025 11.5996 22.4946 12.1566 22.4946C18.0887 22.4939 24.0208 22.4962 29.9529 22.4885C30.3137 22.4885 30.5656 22.6123 30.7317 22.9309V29.5194ZM12.6084 28.753H29.5146V23.7317H12.6084V28.753Z" fill="white"/>
<path d="M30.7317 21.1621C30.5791 21.5144 30.304 21.6305 29.9386 21.6297C26.9887 21.6244 24.0388 21.6282 21.089 21.6252C20.5274 21.6252 20.3026 21.399 20.3019 20.8344C20.2996 16.9422 20.2996 13.0494 20.3019 9.15726C20.3019 8.60408 20.5251 8.37104 21.0626 8.37028C24.0321 8.36722 27.0023 8.37028 29.9717 8.36646C30.328 8.36646 30.5866 8.50093 30.7317 8.83864V21.1621ZM21.5175 20.3813H29.5086V9.61493H21.5175V20.3805V20.3813Z" fill="white"/>
<path d="M9.78408 21.6267C6.85374 21.6267 3.9234 21.6267 0.993067 21.6267C0.241313 21.6267 0.066906 21.4525 0.066906 20.7014C0.066906 16.8995 0.066906 13.0983 0.066906 9.29631C0.066906 8.55594 0.246575 8.36951 0.962997 8.36951C6.84397 8.36951 12.7249 8.36951 18.6052 8.36951C19.3133 8.36951 19.5005 8.55746 19.5005 9.26575C19.5005 13.0876 19.5005 16.9102 19.5005 20.732C19.5005 21.441 19.3148 21.6267 18.6052 21.6275C15.6651 21.6275 12.7242 21.6275 9.78408 21.6275V21.6267ZM18.2774 19.4705V9.61263H1.28475V19.6142C1.38398 19.5049 1.45089 19.4346 1.51328 19.3613C2.70406 17.9623 3.89258 16.561 5.08562 15.1635C5.47277 14.7097 5.82534 14.7104 6.20949 15.1597C6.83946 15.8962 7.46492 16.6366 8.09338 17.3747C8.34597 17.6712 8.60007 17.9668 8.86919 18.2809C8.94888 18.177 9.01052 18.099 9.06991 18.0196C10.2404 16.4349 11.4101 14.8495 12.5814 13.2648C12.8106 12.9546 13.0617 12.8293 13.3181 12.9562C13.488 13.0402 13.6398 13.1945 13.7556 13.3512C15.099 15.1597 16.4341 16.9743 17.7722 18.7874C17.9263 18.9968 18.0819 19.2046 18.2789 19.4698L18.2774 19.4705ZM17.4174 20.3866C17.3813 20.3171 17.3655 20.2712 17.3377 20.2346C16.601 19.2352 15.868 18.2327 15.1193 17.2425C15.0509 17.1524 14.8847 17.0981 14.7637 17.0973C13.7248 17.0859 12.6851 17.0912 11.6454 17.0912C11.2169 17.0912 11.0628 17.2081 10.9012 17.6712C11.056 17.6712 11.2041 17.6712 11.3522 17.6712C11.8619 17.6734 12.3716 17.665 12.8806 17.6841C13.1798 17.6956 13.3895 17.9057 13.4256 18.1968C13.4594 18.465 13.3549 18.6866 13.1151 18.7997C12.9768 18.8654 12.8076 18.886 12.6513 18.8875C11.9221 18.8959 11.1906 18.9189 10.4629 18.8807C10.054 18.8593 9.79761 18.9861 9.58562 19.3383C9.37137 19.6944 9.09848 20.0138 8.82409 20.3874H17.4159L17.4174 20.3866ZM2.24474 20.3721C2.34171 20.3889 2.38832 20.4042 2.43418 20.4042C4.00309 20.4057 5.572 20.4065 7.14091 20.4019C7.21985 20.4019 7.32735 20.3668 7.3732 20.3079C7.63256 19.9771 7.87763 19.6348 8.13248 19.2894C7.29803 18.3084 6.48388 17.3503 5.64718 16.3661C4.50827 17.7071 3.38966 19.0235 2.24399 20.3721H2.24474ZM14.1022 15.8512C13.7661 15.3966 13.4602 14.9809 13.1369 14.5439C12.8046 14.9947 12.4994 15.408 12.1732 15.8512H14.1022Z" fill="white"/>
<path d="M5.28182 22.4939C6.75226 22.4939 8.22269 22.4931 9.69237 22.4939C10.3013 22.4939 10.499 22.6971 10.499 23.3183C10.4998 25.2705 10.4998 27.2219 10.499 29.174C10.499 29.7784 10.2817 29.9969 9.68109 29.9969C6.75075 29.9977 3.81966 29.9977 0.889325 29.9969C0.277397 29.9969 0.0669063 29.7784 0.0669063 29.1473C0.0669063 27.2058 0.0661545 25.2643 0.0669063 23.3221C0.0669063 22.7002 0.266873 22.4939 0.870531 22.4931C2.34096 22.4916 3.81139 22.4931 5.28107 22.4931L5.28182 22.4939ZM9.28191 23.7362H1.28475V28.7599H9.28266V23.7362H9.28191Z" fill="white"/>
<path d="M12.4077 4.25504C14.4367 4.25504 16.4657 4.25428 18.4954 4.25504C18.9359 4.25504 19.1727 4.42696 19.2231 4.77078C19.2682 5.07488 19.1111 5.34536 18.8187 5.42558C18.6766 5.46455 18.5232 5.47295 18.3751 5.47295C14.3968 5.47525 10.4186 5.47525 6.44028 5.47295C6.30195 5.47295 6.15912 5.46531 6.02531 5.43246C5.74039 5.36293 5.56599 5.11537 5.58027 4.82962C5.59531 4.53316 5.8088 4.30089 6.11101 4.26421C6.22001 4.25122 6.33052 4.25428 6.44028 4.25428C8.42942 4.25428 10.4186 4.25428 12.4077 4.25428V4.25504Z" fill="white"/>
<path d="M25.9821 1.57855C27.2879 1.58543 28.2081 2.89808 27.7721 4.14732C27.7036 4.34215 27.7247 4.4644 27.8743 4.59735C28.0089 4.71654 28.1336 4.85254 28.2374 5.00001C28.4035 5.2361 28.3659 5.55319 28.1697 5.7526C27.975 5.9505 27.6668 5.98182 27.427 5.82672C27.3932 5.80533 27.3503 5.78775 27.33 5.75642C27.0496 5.31633 26.685 5.33008 26.2107 5.41871C25.1364 5.61966 24.1381 4.77308 24.0689 3.68659C23.9952 2.52369 24.8583 1.57168 25.9814 1.57779L25.9821 1.57855ZM25.9784 2.80028C25.598 2.79646 25.2717 3.12042 25.265 3.50856C25.2582 3.90817 25.5942 4.25352 25.9821 4.24588C26.3572 4.23824 26.6835 3.90129 26.6828 3.52003C26.6828 3.138 26.3557 2.80334 25.9784 2.80028Z" fill="white"/>
<path d="M20.913 4.26269C21.2483 4.25964 21.5137 4.51636 21.5137 4.84567C21.5137 5.19179 21.2386 5.47755 20.9115 5.47143C20.5883 5.46532 20.3274 5.19255 20.3282 4.86095C20.3282 4.52247 20.5793 4.26651 20.913 4.26269Z" fill="white"/>
<path d="M22.0452 26.8452C20.4056 26.8452 18.7653 26.8467 17.1257 26.8437C16.713 26.8437 16.4784 26.6611 16.4303 26.3249C16.3875 26.0231 16.5491 25.7518 16.84 25.6731C16.9731 25.6372 17.1159 25.6273 17.2543 25.6265C20.4537 25.6242 23.6532 25.6242 26.8534 25.6265C26.982 25.6265 27.1143 25.6365 27.2383 25.6678C27.5247 25.7389 27.6909 25.9795 27.6766 26.2745C27.663 26.5602 27.4601 26.7902 27.1737 26.8315C27.0654 26.8467 26.9541 26.8444 26.8444 26.8444C25.2447 26.8444 23.6449 26.8444 22.0452 26.8444V26.8452Z" fill="white"/>
<path d="M14.7517 26.8414C14.4051 26.8429 14.1345 26.5747 14.1397 26.2324C14.1443 25.897 14.4014 25.6395 14.7336 25.6387C15.0674 25.6387 15.3215 25.8916 15.326 26.2309C15.3305 26.5686 15.0757 26.8391 14.7524 26.8406L14.7517 26.8414Z" fill="white"/>
<path d="M25.5093 14.2673C24.6801 14.2673 23.8509 14.2703 23.0217 14.2657C22.6158 14.2634 22.3654 14.0701 22.3256 13.7439C22.2775 13.355 22.5248 13.0662 22.9383 13.0501C23.2675 13.0371 23.5976 13.0463 23.9276 13.0463C25.2965 13.0463 26.6655 13.0432 28.0337 13.0478C28.5043 13.0493 28.7869 13.3565 28.7102 13.763C28.6493 14.0869 28.4186 14.2627 28.0276 14.265C27.1887 14.2696 26.349 14.2665 25.51 14.2665L25.5093 14.2673Z" fill="white"/>
<path d="M25.5115 16.7115C24.6726 16.7115 23.8329 16.7146 22.9939 16.71C22.606 16.7077 22.3662 16.5151 22.3256 16.1942C22.2745 15.7962 22.5286 15.5066 22.9653 15.4951C23.4645 15.4821 23.9644 15.4913 24.4643 15.4913C25.6431 15.4913 26.8226 15.489 28.0013 15.4928C28.4832 15.4944 28.7741 15.7801 28.7185 16.1797C28.6719 16.5113 28.4411 16.7069 28.06 16.7092C27.2105 16.7146 26.3618 16.7107 25.5123 16.7107L25.5115 16.7115Z" fill="white"/>
<path d="M25.5138 10.6029C26.373 10.6029 27.2323 10.6029 28.0915 10.6029C28.3554 10.6029 28.5629 10.7144 28.6712 10.9597C28.7734 11.1904 28.7553 11.441 28.5652 11.6038C28.4313 11.7184 28.2306 11.8108 28.0585 11.8124C26.37 11.8276 24.6816 11.8253 22.9924 11.8192C22.5714 11.8177 22.3166 11.5709 22.3166 11.2072C22.3166 10.8382 22.5684 10.6067 22.9947 10.6036C23.8336 10.5983 24.6733 10.6021 25.5123 10.6021L25.5138 10.6029Z" fill="white"/>
<path d="M26.6204 19.158C26.1708 19.158 25.7205 19.1626 25.271 19.1565C24.8575 19.1511 24.6087 18.9334 24.5936 18.5819C24.5778 18.2136 24.8229 17.9492 25.2409 17.9431C26.1904 17.9301 27.1406 17.9294 28.09 17.9431C28.4795 17.9492 28.7396 18.2281 28.7305 18.5658C28.7215 18.9104 28.4584 19.1488 28.0607 19.1549C27.5811 19.1626 27.1007 19.1565 26.6211 19.1565L26.6204 19.158Z" fill="white"/>
<path d="M22.3136 18.5453C22.3173 18.2106 22.5789 17.9432 22.9029 17.9432C23.2345 17.9432 23.5134 18.2366 23.5013 18.5728C23.4901 18.9005 23.2202 19.1565 22.8894 19.1542C22.5647 19.1519 22.3106 18.883 22.3136 18.5453Z" fill="white"/>
<path d="M8.26103 10.2995C9.42098 10.2995 10.3825 11.2729 10.3817 12.4495C10.3817 13.6254 9.41873 14.6026 8.26178 14.6026C7.10708 14.6026 6.14033 13.6224 6.13882 12.4503C6.13732 11.279 7.10333 10.2995 8.26103 10.2987V10.2995ZM8.26253 11.5197C7.76186 11.5197 7.34539 11.9353 7.33938 12.4419C7.33336 12.9454 7.74607 13.3733 8.24674 13.3832C8.75869 13.3931 9.18568 12.9637 9.18117 12.4427C9.17666 11.9338 8.7647 11.5197 8.26253 11.5197Z" fill="white"/>
</svg>
