<svg width="28" height="30" viewBox="0 0 28 30" fill="none" xmlns="http://www.w3.org/2000/svg">
<path d="M16.57 18.4723H13.8693L13.9124 18.8139H16.5297L16.57 18.4723Z" fill="white"/>
<path d="M12.9902 13.0254C12.9902 11.8115 13.9777 10.824 15.1916 10.824C16.4054 10.824 17.3929 11.8115 17.3929 13.0254C17.3929 13.451 17.2312 13.8988 16.9253 14.3187C16.919 14.3272 16.9122 14.3346 16.9049 14.3414L15.9492 18.083C16.3039 18.0779 16.6069 17.8236 16.6722 17.474L16.8396 16.5808C16.8413 16.5723 17.0161 15.7324 17.3379 15.4963L17.4525 15.3981C18.1068 14.7812 18.4666 13.947 18.4666 13.0481C18.4666 11.2678 17.0184 9.81897 15.2375 9.81897C13.4567 9.81897 12.0084 11.2672 12.0084 13.0481C12.0084 13.9913 12.4182 14.9152 13.1043 15.5196L13.1065 15.5213L13.1888 15.5956C13.4062 15.7624 13.4788 16.1262 13.5327 16.3929C13.539 16.423 13.5447 16.4514 13.5503 16.4775L13.766 17.4911C13.8369 17.8253 14.1309 18.0694 14.4703 18.0813L13.5237 14.3743C13.1695 13.9203 12.9896 13.4658 12.9896 13.0242L12.9902 13.0254Z" fill="white"/>
<path d="M15.2364 21.2757C15.6353 21.2757 15.7755 21.0084 15.8249 20.8155H14.6331C14.666 20.9857 14.788 21.2757 15.2364 21.2757Z" fill="white"/>
<path d="M16.4321 14.6932L15.8595 15.1399C15.8158 15.1739 15.7596 15.1864 15.7057 15.175C15.6518 15.1631 15.6058 15.1279 15.5803 15.0791L15.208 14.3601L14.6723 15.0871C14.6411 15.1291 14.5934 15.1563 14.5418 15.1614C14.4896 15.1665 14.4373 15.1495 14.3988 15.1149L14.006 14.7613L14.855 18.0846H15.5667L16.4327 14.6938L16.4321 14.6932Z" fill="white"/>
<path d="M15.1921 11.1957C14.1831 11.1957 13.3625 12.0164 13.3625 13.0254C13.3625 13.3483 13.4885 13.6882 13.7365 14.0372C13.7592 14.0452 13.7807 14.0571 13.7989 14.0736L14.4952 14.7006L15.0866 13.8982C15.1246 13.8466 15.1864 13.8182 15.2506 13.8233C15.3147 13.8284 15.3715 13.8658 15.401 13.9232L15.8073 14.7092L16.6324 14.0656C16.6421 14.0582 16.6523 14.052 16.6631 14.0469C16.8345 13.7977 17.0212 13.4334 17.0212 13.0259C17.0212 12.0169 16.2006 11.1963 15.1916 11.1963L15.1921 11.1957Z" fill="white"/>
<path d="M16.4855 19.1856H13.9589L14.0208 19.6799H16.427L16.4855 19.1856Z" fill="white"/>
<path d="M14.8068 0C8.09148 0 2.59407 5.21594 2.14517 11.8177C2.10261 12.4471 1.96924 13.0674 1.74111 13.6553L0.0374585 18.0381C-0.0947701 18.3781 0.137339 18.7498 0.50111 18.7799L3.56677 19.0352C3.82328 19.0568 4.03042 19.2537 4.06447 19.5091L4.19159 19.9904L3.91635 20.9897C3.91635 20.9897 4.08377 21.1015 4.36355 21.4925C4.64276 21.8835 4.61438 23.9896 4.61438 23.9896L4.73526 24.5537C4.79599 25.0088 5.18586 25.3476 5.64497 25.3431L9.89785 25.2052C10.3099 25.1915 10.6515 25.5224 10.6515 25.935V29.3508C10.6515 29.7094 10.9421 30.0006 11.3013 30.0006H21.2542C21.6129 30.0006 21.904 29.71 21.904 29.3508V24.977C21.904 23.9391 22.3506 22.959 23.1105 22.2524C25.7988 19.7543 27.499 15.6296 27.499 11.795C27.4984 4.7852 21.816 0 14.8068 0ZM20.3388 8.73446L22.4738 7.54554C22.5634 7.4956 22.6764 7.52795 22.7263 7.61762C22.7762 7.70728 22.7439 7.82021 22.6542 7.87015L20.5193 9.05908C20.4909 9.07497 20.4597 9.08235 20.429 9.08235C20.3638 9.08235 20.3008 9.04773 20.2667 8.987C20.2168 8.89734 20.2491 8.78441 20.3388 8.73446ZM17.9939 7.29868L19.075 5.1904C19.1215 5.09903 19.2339 5.06328 19.3252 5.10981C19.4166 5.15635 19.4524 5.26871 19.4058 5.36008L18.3247 7.46836C18.2918 7.53249 18.2266 7.56938 18.159 7.56938C18.1306 7.56938 18.1017 7.56257 18.0745 7.54895C17.9831 7.50241 17.9473 7.39005 17.9939 7.29868ZM15.1087 4.4918C15.1087 4.38908 15.1921 4.30623 15.2943 4.30623C15.3964 4.30623 15.4798 4.38965 15.4798 4.4918V6.92412C15.4798 7.02684 15.3964 7.1097 15.2943 7.1097C15.1921 7.1097 15.1087 7.02628 15.1087 6.92412V4.4918ZM11.0476 5.11038C11.139 5.06384 11.2508 5.0996 11.2979 5.19097L12.379 7.29924C12.4261 7.39061 12.3898 7.50241 12.2984 7.54951C12.2712 7.5637 12.2422 7.56994 12.2138 7.56994C12.1463 7.56994 12.081 7.53306 12.0481 7.46893L10.967 5.36065C10.9199 5.26928 10.9562 5.15748 11.0476 5.11038ZM9.52897 11.8603C9.50798 11.9448 9.43193 12.0016 9.34851 12.0016C9.33375 12.0016 9.319 11.9999 9.30367 11.9959L6.89859 11.4012C6.79871 11.3768 6.73799 11.2758 6.76296 11.1764C6.78736 11.0766 6.88837 11.0158 6.98769 11.0408L9.39277 11.6355C9.49265 11.66 9.55338 11.761 9.52841 11.8603H9.52897ZM7.7175 7.87015C7.62783 7.82021 7.59549 7.70728 7.64543 7.61762C7.69537 7.52795 7.8083 7.4956 7.89796 7.54554L10.0329 8.73446C10.1226 8.78441 10.1549 8.89734 10.105 8.987C10.0709 9.0483 10.0079 9.08235 9.94268 9.08235C9.91204 9.08235 9.88083 9.07497 9.85245 9.05908L7.7175 7.87015ZM17.7044 15.6728C17.7044 15.6728 17.7005 15.6767 17.6982 15.6785L17.5745 15.7846C17.5694 15.7885 17.5643 15.7925 17.5592 15.7965C17.4445 15.8759 17.2629 16.3447 17.2056 16.65L17.0382 17.5433C16.9979 17.7589 16.8963 17.9496 16.7544 18.1006H16.7788C16.8322 18.1006 16.8827 18.1233 16.9179 18.163C16.9531 18.2027 16.9695 18.2555 16.9633 18.3083L16.6852 20.6509C16.6739 20.7446 16.595 20.8149 16.5008 20.8149H16.2034C16.1376 21.1736 15.885 21.6469 15.2358 21.6469C14.5395 21.6469 14.2989 21.1481 14.2557 20.8149H13.9515C13.8579 20.8149 13.779 20.7451 13.7671 20.6521L13.4737 18.3094C13.4669 18.2566 13.4833 18.2033 13.5185 18.1636C13.5537 18.1238 13.6048 18.1006 13.6581 18.1006H13.6825C13.5458 17.9553 13.4459 17.7737 13.4022 17.5694L13.1865 16.5558C13.1809 16.5286 13.1746 16.4985 13.1684 16.4667C13.1332 16.2925 13.0685 15.9684 12.9612 15.8901C12.9561 15.8862 12.951 15.8822 12.9459 15.8776L12.8585 15.7982C12.0941 15.1246 11.6378 14.0968 11.6378 13.0486C11.6378 11.0635 13.2529 9.44782 15.2386 9.44782C17.2243 9.44782 18.8395 11.0629 18.8395 13.0486C18.8395 14.0378 18.4257 14.994 17.705 15.6722L17.7044 15.6728ZM20.5516 13.4873C20.5516 13.577 20.4881 13.6536 20.4001 13.6701L19.449 13.8482C19.4172 13.9759 19.3769 14.1059 19.3406 14.2154L20.0556 14.8868C20.1186 14.9458 20.1322 15.0406 20.0891 15.1149L19.5318 16.0808C19.4978 16.1398 19.4359 16.1739 19.3706 16.1739C19.3502 16.1739 19.3292 16.1705 19.3088 16.1631L18.3162 15.8141C18.3043 15.8101 18.2929 15.8044 18.2827 15.7982L18.2407 15.7732C18.1528 15.7204 18.1238 15.6064 18.1766 15.5184C18.2294 15.4305 18.3435 15.4015 18.4314 15.4543L18.4575 15.4702L19.2872 15.7619L19.6941 15.057L19.0267 14.4305C19.012 14.4169 18.9995 14.4004 18.9898 14.3828L18.9671 14.3408C18.9427 14.2949 18.9382 14.241 18.9558 14.1916C19.0052 14.0503 19.0721 13.8443 19.1096 13.6644C19.1209 13.6105 19.1556 13.5645 19.2044 13.5384L19.2435 13.5174C19.26 13.5083 19.2781 13.5021 19.2963 13.4987L20.1793 13.333V12.5192L19.2884 12.3103C19.2691 12.3058 19.2503 12.2984 19.2333 12.2876L19.193 12.2626C19.1482 12.2354 19.1175 12.1906 19.1079 12.1389C19.0704 11.9414 19.0347 11.7825 18.9717 11.6026C18.9484 11.5368 18.9643 11.4636 19.012 11.4131L19.0426 11.3807C19.0472 11.3762 19.0517 11.3717 19.0562 11.3677L19.7378 10.7832L19.3309 10.0783L18.4223 10.3553C18.3491 10.3825 18.2663 10.3604 18.2158 10.3008C18.0864 10.147 17.9842 10.0255 17.8276 9.8899C17.7777 9.84621 17.7544 9.77981 17.7669 9.71455L17.7754 9.66971C17.7771 9.66063 17.7794 9.65155 17.7828 9.64304L18.0807 8.79576L17.3759 8.38885L16.7493 9.05624C16.7363 9.06986 16.7215 9.08178 16.7051 9.09086L16.6529 9.12037C16.6069 9.14647 16.5518 9.15158 16.5013 9.13399C16.3271 9.0744 16.1466 9.02616 15.9656 8.99154C15.8782 8.97509 15.8147 8.89847 15.8147 8.80881V8.76851L15.6523 7.9025H14.8385L14.6297 8.79348C14.6291 8.79689 14.628 8.8003 14.6269 8.8037L14.611 8.85818C14.5911 8.92515 14.5355 8.97509 14.4668 8.98814C14.2898 9.02106 14.1473 9.06475 13.9464 9.13399C13.8812 9.15669 13.8085 9.1408 13.7586 9.09313L13.7013 9.03865C13.6967 9.03411 13.6922 9.02957 13.6882 9.02446L13.1037 8.34289L12.3988 8.74979L12.6826 9.69866C12.7008 9.76732 12.6781 9.83996 12.6247 9.8865C12.4828 10.0096 12.3603 10.1158 12.2343 10.2622C12.1877 10.3161 12.1145 10.3388 12.0453 10.3201L11.9766 10.3019C11.9721 10.3008 11.9675 10.2991 11.963 10.2979L11.1157 10L10.7088 10.7048L11.3762 11.3314C11.3807 11.3359 11.3853 11.3404 11.3898 11.3456L11.4392 11.4029C11.4823 11.4528 11.4959 11.5226 11.4738 11.585C11.4057 11.7825 11.3626 11.9363 11.3308 12.1003C11.3166 12.1735 11.2599 12.2314 11.1867 12.2468L11.1095 12.2626L10.223 12.4289V13.2427L11.114 13.4516C11.1214 13.4533 11.1293 13.4555 11.1367 13.4584L11.2145 13.4873C11.2763 13.5106 11.3212 13.5645 11.3325 13.6298C11.3666 13.825 11.3995 13.9549 11.463 14.1445C11.488 14.2188 11.4636 14.3006 11.4023 14.3494L11.3427 14.3965L10.664 14.9787L11.0709 15.6836L11.9471 15.4191C12.0453 15.3896 12.1491 15.4452 12.1787 15.5434C12.2082 15.6416 12.1525 15.7454 12.0544 15.7749L11.0374 16.0819C10.9545 16.1069 10.866 16.0717 10.8229 15.9968L10.265 15.0309C10.2202 14.9537 10.2372 14.855 10.3048 14.7971L11.0709 14.1399C11.0357 14.0247 11.0096 13.922 10.9863 13.8034L9.99433 13.5707C9.91034 13.5509 9.85075 13.476 9.85075 13.3897V12.2746C9.85075 12.1849 9.91431 12.1083 10.0023 12.0918L10.992 11.9062C11.017 11.799 11.0476 11.6895 11.0868 11.5697L10.3467 10.8751C10.2838 10.8161 10.2701 10.7213 10.3133 10.647L10.8711 9.68106C10.916 9.60388 11.0096 9.56926 11.0936 9.59877L12.0345 9.92963C12.1208 9.83826 12.2053 9.76051 12.2927 9.6839L12.0005 8.71687C11.9755 8.63402 12.0107 8.54549 12.0856 8.50236L13.0515 7.9445C13.1292 7.89967 13.2274 7.91669 13.2853 7.98422L13.9379 8.74468C14.0469 8.70893 14.1587 8.67544 14.2835 8.6465L14.5117 7.6738C14.5315 7.58981 14.6064 7.53022 14.6927 7.53022H15.8078C15.8975 7.53022 15.9741 7.59378 15.9906 7.68174L16.1728 8.65388C16.2925 8.68055 16.4111 8.7129 16.5274 8.74979L17.2067 8.02565C17.2658 7.96266 17.3605 7.94847 17.4349 7.99217L18.4008 8.54946C18.478 8.59429 18.5126 8.68793 18.4831 8.77192L18.1607 9.68787C18.2589 9.78094 18.3389 9.86947 18.4195 9.96368L19.3644 9.67822C19.4473 9.65325 19.5358 9.68844 19.5789 9.76335L20.1368 10.7292C20.1816 10.8064 20.1646 10.9052 20.097 10.9631L19.3604 11.5947C19.3984 11.7184 19.4263 11.8353 19.4529 11.9653L20.4075 12.1889C20.4915 12.2087 20.5511 12.2836 20.5511 12.3699V13.485L20.5516 13.4873ZM23.4731 11.4017L21.068 11.9965C21.0533 12.0005 21.038 12.0022 21.0232 12.0022C20.9398 12.0022 20.8637 11.9454 20.8427 11.8608C20.8183 11.761 20.8791 11.6605 20.9784 11.6361L23.3835 11.0414C23.4828 11.017 23.5838 11.0777 23.6082 11.177C23.6326 11.2769 23.5719 11.3773 23.4726 11.4017H23.4731Z" fill="white"/>
<path d="M16.0394 20.4438H16.3362L16.3827 20.0516H14.0673L14.1167 20.4438H16.0371C15.9355 20.4438 15.8527 20.5255 15.8516 20.6271C15.8516 20.6487 15.8482 20.7236 15.8249 20.8155H16.2045C16.2165 20.7491 16.2227 20.6872 16.2233 20.6322C16.2244 20.5295 16.1427 20.4455 16.04 20.4438H16.0394Z" fill="white"/>
<path d="M14.6206 20.7105C14.6184 20.6084 14.5338 20.5266 14.4317 20.5289C14.3289 20.5306 14.2472 20.6152 14.2489 20.7179C14.2489 20.748 14.2518 20.7809 14.2563 20.8161H14.6331C14.624 20.7695 14.6212 20.7315 14.6206 20.7111V20.7105Z" fill="white"/>
<path d="M13.8948 18.8139C13.7921 18.8139 13.7092 18.8973 13.7092 18.9995C13.7092 19.1016 13.7927 19.1851 13.8948 19.1851H13.9589L13.9124 18.8134H13.8948V18.8139Z" fill="white"/>
<path d="M16.6449 19.1856C16.7476 19.1856 16.8305 19.1022 16.8305 19C16.8305 18.8979 16.747 18.8145 16.6449 18.8145H16.5291L16.4849 19.1862H16.6443L16.6449 19.1856Z" fill="white"/>
<path d="M16.5632 20.0511C16.6659 20.0511 16.7488 19.9677 16.7488 19.8655C16.7488 19.7634 16.6654 19.6799 16.5632 19.6799H16.427L16.3828 20.0516H16.5632V20.0511Z" fill="white"/>
<path d="M13.8948 19.68C13.7921 19.68 13.7092 19.7634 13.7092 19.8655C13.7092 19.9677 13.7927 20.0511 13.8948 20.0511H14.0673L14.0208 19.6794H13.8948V19.68Z" fill="white"/>
<path d="M15.9253 18.18C15.9038 18.264 15.8283 18.3196 15.7454 18.3196C15.7301 18.3196 15.7148 18.3179 15.6995 18.3139C15.6041 18.2895 15.5462 18.1959 15.5632 18.1011H14.8578C14.8749 18.1965 14.817 18.2901 14.7216 18.3139C14.6223 18.3395 14.5207 18.2793 14.4958 18.18L14.4753 18.1011H13.6831C13.8897 18.3202 14.1814 18.4558 14.4969 18.4558H15.9389C16.2573 18.4558 16.5484 18.3208 16.7544 18.1011H15.9452L15.9247 18.18H15.9253Z" fill="white"/>
<path d="M15.5661 18.0841L15.5649 18.0881C15.5638 18.0926 15.5638 18.0966 15.5632 18.1011H15.9452L15.9497 18.0836C15.9463 18.0836 15.9423 18.0836 15.9389 18.0836H15.5661V18.0841Z" fill="white"/>
<path d="M14.8556 18.0881L14.8545 18.0841H14.4969C14.4878 18.0841 14.4793 18.0835 14.4708 18.0829L14.4754 18.1011H14.8573C14.8567 18.0966 14.8562 18.0926 14.8556 18.0881Z" fill="white"/>
<path d="M16.8487 14.0565C16.7925 14.0196 16.7215 14.0168 16.6631 14.0463C16.65 14.065 16.6376 14.0826 16.6251 14.1002C16.5649 14.183 16.5831 14.2994 16.6659 14.3595C16.7403 14.414 16.8413 14.4038 16.9054 14.3414L16.927 14.258C16.9468 14.1808 16.9151 14.1002 16.8487 14.0565Z" fill="white"/>
<path d="M13.5781 14.0531C13.5083 14.0957 13.4743 14.1786 13.4941 14.258L13.5242 14.3755C13.5242 14.3755 13.527 14.3794 13.5288 14.3817C13.5656 14.4283 13.6201 14.4532 13.6752 14.4532C13.7155 14.4532 13.7558 14.4402 13.7898 14.4135C13.8704 14.3505 13.8846 14.2336 13.8216 14.1524C13.7915 14.1139 13.7631 14.0758 13.7359 14.0372C13.6848 14.0191 13.6269 14.0236 13.5781 14.0531Z" fill="white"/>
</svg>
