<svg width="28" height="30" viewBox="0 0 28 30" fill="none" xmlns="http://www.w3.org/2000/svg">
<path d="M24.7503 8.78695C24.77 8.55651 24.7798 8.32607 24.7798 8.0968C24.7792 3.63216 21.173 0 16.7402 0C14.1644 0 11.7751 1.22744 10.261 3.30604C9.7611 3.17012 9.25138 3.10186 8.74108 3.10186C5.51654 3.10186 2.88744 5.71601 2.83183 8.9503C1.12138 9.78512 0 11.5569 0 13.4896C0 16.109 2.02787 18.3136 4.6199 18.5155L4.64307 18.5184C4.69346 18.5254 4.76297 18.5347 4.84522 18.5347H6.99066V17.3143H4.85043C4.83595 17.3131 4.82205 17.3108 4.80815 17.309C4.78961 17.3067 4.77107 17.3038 4.75312 17.302C4.74443 17.3009 4.73574 17.3003 4.72647 17.2997C2.75595 17.1527 1.21232 15.479 1.21232 13.4896C1.21232 11.9121 2.19874 10.4758 3.66707 9.9158C3.91382 9.82187 4.07137 9.57744 4.05747 9.312C4.05573 9.27933 4.05342 9.24666 4.0511 9.21399C4.04762 9.1609 4.04357 9.10781 4.04357 9.05414C4.04357 6.44524 6.15137 4.3223 8.74166 4.3223C9.26702 4.3223 9.79295 4.41448 10.305 4.59708C10.5691 4.691 10.8622 4.59066 11.0145 4.35439C12.2819 2.39188 14.4227 1.22044 16.7408 1.22044C20.5051 1.22044 23.5681 4.30538 23.5681 8.0968C23.5681 8.43692 23.5426 8.7817 23.4922 9.12123C23.447 9.42751 23.637 9.71978 23.9341 9.80029C25.5884 10.2489 26.7434 11.7657 26.7434 13.4896C26.7434 15.5986 25.0399 17.3149 22.9472 17.3149C22.9385 17.3149 22.9298 17.3137 22.9211 17.3131C22.895 17.3114 22.869 17.3096 22.8423 17.309C22.8284 17.309 22.8139 17.309 22.7994 17.309C22.7786 17.3102 22.7577 17.312 22.7357 17.3143H21.6317V18.5347H22.7664C22.796 18.5347 22.822 18.533 22.844 18.5307C22.8776 18.533 22.9112 18.5347 22.9454 18.5347C25.7077 18.5347 27.9551 16.2712 27.9551 13.489C27.9551 11.3935 26.6611 9.5296 24.7509 8.78637L24.7503 8.78695Z" fill="white"/>
<path d="M14.6799 27.0481C14.6822 27.0294 14.6857 27.0113 14.6857 26.9921V15.3477C14.6857 15.1231 14.505 14.9411 14.282 14.9411C14.059 14.9411 13.8782 15.1231 13.8782 15.3477V26.9921C13.8782 27.0113 13.8811 27.0294 13.884 27.0481C13.2533 27.2237 12.7893 27.8047 12.7893 28.4961C12.7893 29.3268 13.4577 30 14.2825 30C15.1074 30 15.7758 29.3268 15.7758 28.4961C15.7758 27.8047 15.3118 27.2237 14.6811 27.0481H14.6799Z" fill="white"/>
<path d="M21.1429 25.5441C21.1452 25.5254 21.1487 25.5073 21.1487 25.4881V22.3647C21.1487 22.14 20.9679 21.958 20.7449 21.958H17.404V15.3471C17.404 15.1225 17.2232 14.9405 17.0002 14.9405C16.7772 14.9405 16.5965 15.1225 16.5965 15.3471V22.3647C16.5965 22.5893 16.7772 22.7713 17.0002 22.7713H20.3412V25.4875C20.3412 25.5068 20.3441 25.5249 20.347 25.5435C19.7162 25.7191 19.2523 26.3002 19.2523 26.9915C19.2523 27.8222 19.9207 28.4954 20.7455 28.4954C21.5703 28.4954 22.2388 27.8222 22.2388 26.9915C22.2388 26.3002 21.7748 25.7191 21.144 25.5435L21.1429 25.5441Z" fill="white"/>
<path d="M24.7132 19.7657C24.3477 19.7657 24.0135 19.8981 23.754 20.1175C23.7169 20.0836 23.6741 20.0556 23.6248 20.037L19.656 18.5359V15.3477C19.656 15.1231 19.4753 14.9411 19.2523 14.9411C19.0293 14.9411 18.8485 15.1231 18.8485 15.3477V18.8177C18.8485 18.9875 18.9528 19.1391 19.1104 19.1986L23.3016 20.7837C23.2501 20.936 23.2205 21.0987 23.2205 21.2691C23.2205 22.0998 23.889 22.773 24.7138 22.773C25.5386 22.773 26.207 22.0998 26.207 21.2691C26.207 20.4383 25.5386 19.7651 24.7138 19.7651L24.7132 19.7657Z" fill="white"/>
<path d="M11.5631 14.9411C11.3401 14.9411 11.1593 15.1231 11.1593 15.3477V21.9586H7.81838C7.59537 21.9586 7.41466 22.1407 7.41466 22.3653V25.4887C7.41466 25.508 7.41755 25.526 7.42045 25.5447C6.78967 25.7203 6.32571 26.3014 6.32571 26.9927C6.32571 27.8234 6.99414 28.4966 7.81896 28.4966C8.64377 28.4966 9.3122 27.8234 9.3122 26.9927C9.3122 26.3014 8.84824 25.7203 8.21746 25.5447C8.21978 25.526 8.22326 25.508 8.22326 25.4887V22.7725H11.5642C11.7872 22.7725 11.9679 22.5905 11.9679 22.3658V15.3483C11.9679 15.1237 11.7872 14.9417 11.5642 14.9417L11.5631 14.9411Z" fill="white"/>
<path d="M9.45295 19.1986C9.6105 19.1391 9.71476 18.9875 9.71476 18.8177V15.3477C9.71476 15.1231 9.53404 14.9411 9.31104 14.9411C9.08804 14.9411 8.90732 15.1231 8.90732 15.3477V18.5359L4.93847 20.037C4.88113 20.0586 4.83247 20.093 4.79251 20.1344C4.5307 19.9051 4.18953 19.7657 3.81477 19.7657C2.98996 19.7657 2.32153 20.4389 2.32153 21.2697C2.32153 22.1004 2.98996 22.7736 3.81477 22.7736C4.63959 22.7736 5.30802 22.1004 5.30802 21.2697C5.30802 21.104 5.28021 20.9453 5.23156 20.796L9.45411 19.1992L9.45295 19.1986Z" fill="white"/>
</svg>
