<svg width="32" height="30" viewBox="0 0 32 30" fill="none" xmlns="http://www.w3.org/2000/svg">
<path d="M32.0006 2.5617V27.4374C31.9772 27.5159 31.9497 27.5936 31.9305 27.6737C31.6082 29.0281 30.4208 29.9958 29.0464 29.9966C20.351 30 11.6546 30.0008 2.95917 29.9966C1.33179 29.9966 0.0041708 28.6598 0.00333582 27.0274C-0.000839084 19.0083 -0.000839084 10.99 0.00250084 2.97084C0.00333582 1.33762 1.33012 0.00331688 2.95917 0.0024819C11.6546 -0.001693 20.3501 -2.30397e-05 29.0464 0.0024819C30.2881 0.0024819 31.3961 0.798218 31.8161 1.9697C31.8862 2.16425 31.9397 2.36464 32.0006 2.5617ZM30.0017 10.0206H1.99894V10.383C1.99894 15.8404 1.99894 21.2978 1.99894 26.7544C1.99894 27.6353 2.36716 28.001 3.25475 28.001C11.7532 28.001 20.2516 28.001 28.75 28.001C29.6376 28.001 30.0017 27.637 30.0017 26.7511C30.0017 21.2936 30.0017 15.8362 30.0017 10.3796V10.0214V10.0206ZM5.01155 4.00037C4.48217 3.99202 4.01458 4.44541 4.00122 4.97896C3.98703 5.51586 4.46463 6.00098 5.00403 5.99847C5.53424 5.99597 5.99682 5.53422 5.99933 5.00318C6.00183 4.47464 5.54259 4.00788 5.01155 3.99953V4.00037ZM8.99941 5.00568C9.00359 4.47714 8.54518 4.00955 8.01414 4.00037C7.48476 3.99118 7.01633 4.44291 7.0013 4.97729C6.98544 5.51419 7.46221 6.00014 8.00161 5.99931C8.53182 5.99847 8.99524 5.53756 8.99941 5.00652V5.00568ZM11.0025 5.99931C11.5327 5.99764 11.9953 5.53589 11.9995 5.00485C12.0028 4.47631 11.5436 4.00955 11.0125 4.00037C10.4723 3.99118 9.99387 4.46879 10.0006 5.00902C10.0072 5.53924 10.474 6.00098 11.0025 5.99847V5.99931Z" fill="white"/>
<path d="M6.00099 17.1555C6.00099 16.1243 5.99932 15.0939 6.00099 14.0627C6.00183 13.429 6.41765 12.9956 7.01299 13.0006C7.58495 13.0056 7.99743 13.4448 7.99743 14.0594C7.9991 16.0174 7.99242 17.9746 7.99993 19.9326C8.00578 21.3396 8.89002 22.5253 10.1717 22.8759C12.1389 23.4145 13.9842 21.9992 13.9976 19.926C14.0101 17.9479 13.9984 15.969 14.0018 13.9901C14.0018 13.5434 14.2673 13.1902 14.6856 13.0482C15.0822 12.913 15.5256 13.0265 15.7719 13.378C15.8905 13.5475 15.9874 13.7738 15.989 13.9759C16.0041 16.0792 16.0199 18.1834 15.9899 20.2858C15.959 22.496 14.1112 24.5643 11.8968 24.9275C9.16891 25.375 6.70071 23.7176 6.10703 21.0189C6.0227 20.6374 6.01185 20.2349 6.00517 19.8416C5.99097 18.9465 6.00099 18.0506 6.00099 17.1547V17.1555Z" fill="white"/>
<path d="M22.0026 17.0428C22.7115 15.8604 23.3786 14.7332 24.0658 13.6194C24.1911 13.4156 24.3764 13.2194 24.581 13.1008C24.9442 12.8896 25.4009 12.9915 25.7015 13.2854C26.0088 13.586 26.1015 14.0469 25.9019 14.4335C25.7349 14.7566 25.537 15.063 25.35 15.3745C24.6762 16.4984 24.0074 17.6248 23.3218 18.7403C23.1999 18.939 23.21 19.076 23.3277 19.268C24.1652 20.6449 24.9918 22.0284 25.8184 23.412C26.0739 23.8395 26.0622 24.2679 25.8001 24.6069C25.3542 25.1838 24.5209 25.1296 24.1234 24.4808C23.4888 23.4437 22.8693 22.3958 22.243 21.3538C22.1737 21.2394 22.1003 21.1267 22.0017 20.9697C21.9274 21.0883 21.8681 21.1784 21.813 21.2711C21.1759 22.3315 20.5414 23.3945 19.9009 24.4524C19.612 24.9292 19.1478 25.1112 18.681 24.9475C18.0523 24.7279 17.811 24.0432 18.1675 23.4421C18.8455 22.2973 19.5344 21.1584 20.2191 20.0178C20.3794 19.7506 20.528 19.4751 20.7042 19.2179C20.8161 19.0542 20.7969 18.9357 20.6983 18.7729C19.8625 17.3951 19.0376 16.0107 18.2051 14.6314C18.0364 14.3516 17.9429 14.0636 18.0347 13.7421C18.1516 13.3346 18.4255 13.0758 18.8422 13.0115C19.2847 12.9439 19.6404 13.1175 19.8742 13.5025C20.2959 14.1955 20.7092 14.8927 21.1267 15.5882C21.4089 16.0575 21.692 16.5259 22.0042 17.0419L22.0026 17.0428Z" fill="white"/>
</svg>
