<svg width="28" height="30" viewBox="0 0 28 30" fill="none" xmlns="http://www.w3.org/2000/svg">
<path d="M14.3469 0C14.772 0.128389 15.2154 0.217635 15.6198 0.392213C16.7288 0.870541 17.5678 1.68158 18.2334 2.64685C18.7216 3.35534 19.1259 4.1202 19.5446 4.87252C19.6469 5.0565 19.7396 5.12852 19.9514 5.10112C21.2266 4.93907 22.4963 4.96099 23.7492 5.26943C25.0293 5.58493 26.1623 6.14859 26.9469 7.22815C27.698 8.26075 27.8099 9.43034 27.595 10.6446C27.3273 12.157 26.6209 13.4824 25.7324 14.7225C25.5822 14.9315 25.5806 15.0685 25.7324 15.2791C26.5938 16.4769 27.2889 17.7568 27.5678 19.213C28.0832 21.9037 26.7839 23.9274 24.0856 24.6617C22.8119 25.0085 21.5159 25.0766 20.2055 24.9278C20.1655 24.9232 20.1247 24.9232 20.0872 24.913C19.7748 24.8339 19.6214 24.9623 19.4879 25.2488C18.9158 26.4834 18.1887 27.6217 17.1755 28.5634C16.2174 29.4543 15.114 30.0321 13.7548 29.9977C12.4819 29.9656 11.4416 29.4066 10.5395 28.5681C9.54067 27.6405 8.83912 26.5108 8.25981 25.3013C8.05046 24.8644 8.05446 24.8644 7.55426 24.9239C6.25422 25.0782 4.96697 25.0147 3.70529 24.6585C2.53869 24.329 1.51272 23.7692 0.791192 22.7805C-0.0358136 21.6484 -0.14688 20.3841 0.148764 19.0611C0.463586 17.6535 1.14996 16.4158 2.00813 15.2642C2.15835 15.063 2.15595 14.9346 2.01053 14.7334C1.18752 13.5944 0.525112 12.3762 0.211889 11.0023C-0.129301 9.50236 -0.00145485 8.0846 1.06686 6.86725C1.88188 5.93878 2.96538 5.47141 4.15914 5.21855C5.28898 4.97899 6.42921 4.9422 7.57663 5.08233C8.05446 5.14105 8.04967 5.134 8.25901 4.70891C8.95178 3.29819 9.79237 1.9916 11.0708 1.00911C11.7236 0.507294 12.4508 0.159704 13.2818 0.0446231C13.3193 0.039143 13.3537 0.0156572 13.3896 0C13.7085 0 14.0273 0 14.3469 0V0ZM7.44799 15.0043C7.51751 16.1034 7.58223 17.2041 7.66293 18.3041C7.67092 18.4113 7.75322 18.5452 7.84351 18.6086C9.65893 19.8862 11.5359 21.0613 13.6166 21.8896C13.7612 21.9467 13.9721 21.9483 14.1152 21.8896C16.1743 21.0441 18.0648 19.9089 19.8659 18.6274C19.9745 18.5499 20.0552 18.3823 20.0744 18.2469C20.1303 17.8508 20.1551 17.4507 20.1799 17.0515C20.2838 15.402 20.2438 13.7549 20.1263 12.1054C20.0928 11.627 19.8914 11.3624 19.5095 11.108C17.7939 9.96425 16.0488 8.87764 14.1168 8.11122C13.9921 8.0619 13.8163 8.0345 13.7005 8.08225C11.615 8.93948 9.6829 10.0613 7.86429 11.3718C7.76121 11.4462 7.66932 11.602 7.66053 11.7265C7.57823 12.8162 7.51591 13.9075 7.44639 15.0051L7.44799 15.0043ZM3.07405 16.0212C2.34612 17.0664 1.73486 18.1318 1.45439 19.3515C1.00853 21.2907 1.88428 22.8055 3.81236 23.4138C4.82155 23.7324 5.8619 23.7935 6.91263 23.7191C7.13716 23.7035 7.35929 23.6565 7.58462 23.6236C7.57903 23.5649 7.58303 23.5351 7.57344 23.5093C7.08283 22.1432 6.79038 20.7317 6.55626 19.3061C6.53708 19.1887 6.43401 19.0658 6.33732 18.9836C5.87148 18.5867 5.37608 18.2219 4.92622 17.8101C4.30217 17.2394 3.70848 16.6366 3.07485 16.0212H3.07405ZM20.1351 6.37092C20.1647 6.47426 20.1799 6.53845 20.2023 6.6003C20.6585 7.90454 20.931 9.25106 21.1707 10.6054C21.1979 10.7589 21.2993 10.9342 21.4224 11.0313C22.5059 11.8799 23.5342 12.7849 24.4579 13.8003C24.5163 13.8645 24.5394 13.9584 24.5978 14.0758C25.392 12.9336 26.0105 11.8603 26.2861 10.6297C26.7224 8.67723 25.8203 7.16239 23.873 6.5729C22.9685 6.2989 22.0384 6.22609 21.0972 6.26993C20.7832 6.2848 20.4707 6.33491 20.1351 6.3717V6.37092ZM18.3637 5.25065C18.3117 5.14887 18.2494 5.01735 18.1807 4.88975C17.575 3.75851 16.8783 2.69382 15.8035 1.92819C14.6961 1.13828 13.5175 0.988753 12.3133 1.69254C10.8631 2.54038 10.0704 3.91274 9.34331 5.36025C9.46237 5.39078 9.54706 5.41035 9.63017 5.43384C10.7864 5.75246 11.9586 6.02724 13.0916 6.41085C13.6413 6.59717 14.0856 6.60891 14.6361 6.41085C15.8467 5.97557 17.0932 5.63894 18.3629 5.25065H18.3637ZM9.38406 24.7486C9.38486 24.7227 9.37687 24.7454 9.38406 24.7611C9.97935 25.9878 10.6945 27.1339 11.8075 27.9802C13.1995 29.0386 14.6465 29.0159 16.0089 27.9215C17.0716 27.0682 17.7788 25.9534 18.3525 24.7486C18.3589 24.7353 18.3461 24.7126 18.3541 24.7486C17.2578 24.4425 16.1855 24.1536 15.1196 23.8412C14.6921 23.716 14.279 23.4193 13.8611 23.4232C13.4312 23.4271 13.0109 23.7246 12.5738 23.853C11.5191 24.1622 10.4564 24.448 9.38326 24.7478L9.38406 24.7486ZM7.50632 6.25662C7.09162 6.25662 6.73764 6.25897 6.38287 6.25662C5.2778 6.24801 4.1975 6.37405 3.18431 6.84377C1.91145 7.43404 1.25623 8.40871 1.30977 9.79907C1.3697 11.3499 2.09283 12.6534 2.9438 13.9208C2.99175 13.884 3.0261 13.8645 3.05167 13.8363C4.0305 12.7638 5.1092 11.7985 6.26461 10.9123C6.34771 10.8481 6.41563 10.7268 6.43241 10.6234C6.66493 9.17826 6.95498 7.74641 7.50552 6.25662H7.50632ZM24.7632 16.0385C24.6929 16.1332 24.6593 16.1958 24.6098 16.242C23.8379 16.9748 23.1164 17.7702 22.275 18.416C21.5878 18.9437 21.2282 19.5206 21.1028 20.3716C20.9398 21.4833 20.601 22.5699 20.3277 23.7097C20.6321 23.7207 20.9853 23.7402 21.3385 23.7449C22.4436 23.759 23.5239 23.6314 24.5378 23.1648C25.8235 22.5738 26.4827 21.5897 26.4244 20.1884C26.3605 18.6485 25.6413 17.3521 24.7624 16.0385H24.7632ZM6.23984 17.3983V12.6902L6.16793 12.6409C5.38886 13.4135 4.6098 14.1854 3.78839 15.0004C4.62498 15.8193 5.40804 16.5849 6.23984 17.3983ZM21.4959 12.6041V17.3145L21.5654 17.3631C22.3453 16.5904 23.1259 15.8185 23.9489 15.0027C23.1116 14.1839 22.3285 13.4174 21.4959 12.6041ZM15.5686 7.32679C16.9973 8.13079 18.3613 8.89878 19.7923 9.70356C19.4871 8.61382 19.1915 7.55774 18.8798 6.44373C17.7396 6.74748 16.6777 7.03087 15.5686 7.32601V7.32679ZM12.1647 22.6756C10.74 21.8723 9.37527 21.1028 7.94339 20.2957C8.24703 21.3838 8.54267 22.4399 8.8543 23.5578C9.99453 23.2541 11.062 22.9691 12.1647 22.6756ZM12.1551 7.32131C11.0525 7.0293 9.98414 6.74669 8.8543 6.44764C8.55066 7.57574 8.267 8.62869 7.98175 9.68868C9.38166 8.89408 10.7376 8.12531 12.1551 7.32131ZM18.8806 23.5602C19.1851 22.4297 19.4687 21.3744 19.7532 20.3184C18.3525 21.1114 16.9917 21.8817 15.5822 22.6795C16.6753 22.9715 17.7364 23.2549 18.8806 23.5602Z" fill="white"/>
<path d="M14.0195 13.6954C13.1454 13.6727 12.4326 13.603 11.7686 13.3055C11.5449 13.2053 11.3236 13.0809 11.1382 12.9251C10.6931 12.5509 10.6859 12.0616 11.1446 11.7015C11.4027 11.4987 11.7119 11.3296 12.0259 11.2294C13.3355 10.8113 14.65 10.8239 15.942 11.3108C16.1697 11.3969 16.3895 11.5292 16.578 11.6819C17.0503 12.0655 17.0439 12.5587 16.5756 12.9525C16.1386 13.3196 15.6032 13.4793 15.0527 13.5788C14.6627 13.6492 14.2632 13.6696 14.0195 13.6954Z" fill="white"/>
<path d="M10.8106 16.9795C12.8641 17.8485 14.8777 17.8516 16.8921 16.9951C17.0686 17.9291 16.8545 18.391 15.978 18.7323C14.5668 19.2819 13.1406 19.2678 11.7247 18.7206C11.596 18.6713 11.4762 18.5969 11.3587 18.5241C10.9872 18.2947 10.7594 17.9902 10.8074 17.5322C10.8257 17.3592 10.8106 17.183 10.8106 16.9795Z" fill="white"/>
<path d="M10.8106 14.2285C12.8585 15.0998 14.8681 15.1006 16.8793 14.2504C17.0151 15.2032 16.9695 15.5273 16.1266 15.9054C14.6515 16.5669 13.1366 16.5473 11.6432 15.9289C11.0782 15.6948 10.7027 15.3073 10.8082 14.6364C10.8273 14.5135 10.8106 14.3851 10.8106 14.2285Z" fill="white"/>
</svg>
