<svg width="29" height="30" viewBox="0 0 29 30" fill="none" xmlns="http://www.w3.org/2000/svg">
<path d="M3.54525 1.71123C3.55836 2.00246 3.73097 2.18949 3.9686 2.18729C4.19202 2.1851 4.37228 2.00685 4.38157 1.73153C4.39577 1.30318 4.39686 0.873193 4.38048 0.444301C4.3701 0.158008 4.19857 -0.00214106 3.9615 5.27634e-05C3.71513 0.00279504 3.55726 0.177752 3.5447 0.478305C3.53651 0.67904 3.54306 0.879775 3.54306 1.08106C3.54306 1.29112 3.53541 1.50117 3.5447 1.71123H3.54525Z" fill="white"/>
<path d="M10.1528 1.0734C10.1528 1.28346 10.1528 1.49352 10.1528 1.70357C10.1528 1.72167 10.1528 1.74032 10.1555 1.75842C10.1883 2.01181 10.356 2.18457 10.5712 2.18731C10.7859 2.19005 10.9749 2.02332 10.9858 1.7661C11.0038 1.31966 11.0049 0.871569 10.9875 0.425127C10.9765 0.153641 10.8072 0.00226778 10.5799 0.000622417C10.344 -0.00102295 10.1752 0.165707 10.1571 0.443774C10.1435 0.652735 10.1544 0.863342 10.1544 1.0734H10.1533H10.1528Z" fill="white"/>
<path d="M17.1831 2.18731C17.4142 2.19005 17.5906 2.00084 17.6064 1.71125C17.6179 1.50174 17.6086 1.29114 17.6086 1.08108C17.6086 0.87102 17.6201 0.660413 17.6053 0.451452C17.5857 0.166255 17.424 0.00226725 17.1896 0.00062189C16.9438 -0.00102348 16.7745 0.173385 16.7668 0.471745C16.7559 0.882537 16.7565 1.29388 16.7668 1.70412C16.7739 1.99864 16.9455 2.18457 17.1836 2.18731H17.1831Z" fill="white"/>
<path d="M7.27779 2.18784C7.51159 2.18345 7.67601 2.00246 7.68311 1.72878C7.68912 1.50995 7.68421 1.29057 7.68421 1.07173H7.68311C7.68311 0.8529 7.69131 0.632969 7.68093 0.414684C7.66891 0.162395 7.49465 -0.00214163 7.26468 5.21897e-05C7.03416 0.00279446 6.86973 0.167331 6.86536 0.42675C6.85772 0.864966 6.85772 1.30318 6.86482 1.74085C6.86919 2.01069 7.04563 2.19223 7.27724 2.18784H7.27779Z" fill="white"/>
<path d="M13.4746 1.07065C13.4746 1.30813 13.4664 1.54561 13.4768 1.78254C13.4871 2.01564 13.6619 2.18347 13.8744 2.1873C14.0875 2.19114 14.2814 2.02661 14.288 1.79626C14.3011 1.33117 14.3 0.865528 14.289 0.400438C14.2836 0.163505 14.1066 0.00390496 13.8881 6.5773e-05C13.6576 -0.00377341 13.486 0.160763 13.4757 0.413601C13.4664 0.632434 13.474 0.851816 13.474 1.07065H13.4751H13.4746Z" fill="white"/>
<path d="M24.893 6.90016H21.3243V5.72427C21.3243 4.98441 20.7245 4.3822 19.9876 4.3822H1.3367C0.599792 4.3822 0 4.98441 0 5.72427V24.6427C0 26.1383 0.934103 27.4179 2.24731 27.9268V28.3777C2.24731 29.2722 2.97219 30 3.86314 30H17.4606C18.3516 30 19.0765 29.2722 19.0765 28.3777V27.9268C20.3897 27.4179 21.3238 26.1383 21.3238 24.6427V22.7686H21.4898C25.2011 22.7686 28.2203 19.7373 28.2203 16.0111V10.2408C28.2203 8.39854 26.7274 6.90016 24.893 6.90016ZM21.3292 10.1256H23.4853C24.2468 10.1256 24.8662 10.7476 24.8662 11.5121V15.6798C24.8662 17.6268 23.2887 19.2102 21.35 19.2102H21.3292V10.1256ZM17.9845 28.3771C17.9845 28.6667 17.7496 28.9025 17.4612 28.9025H3.86314C3.57472 28.9025 3.33983 28.6667 3.33983 28.3771V28.167H17.9845V28.3771ZM20.2318 24.6421C20.2318 25.9782 19.1491 27.0647 17.819 27.0647H3.50534C2.17466 27.0647 1.09252 25.9776 1.09252 24.6421V5.72427C1.09252 5.58935 1.20177 5.47911 1.3367 5.47911H19.9876C20.122 5.47911 20.2318 5.58935 20.2318 5.72427V24.6427V24.6421ZM27.1283 16.0105C27.1283 19.1318 24.5991 21.6711 21.4904 21.6711H21.3298V20.3066H21.3505C23.8917 20.3066 25.9593 18.2307 25.9593 15.6793V11.5116C25.9593 10.1421 24.8499 9.02816 23.4859 9.02816H21.3298V7.99652H24.8936C26.1259 7.99652 27.1283 9.00294 27.1283 10.2403V16.0105Z" fill="white"/>
<path d="M4.97997 16.34L7.39997 14.05H6.24997L3.83997 16.34L6.24997 18.64H7.39997L4.97997 16.34Z" fill="white"/>
<path d="M9.07684 21.7H9.97684L12.7168 10.58H11.8068L9.07684 21.7Z" fill="white"/>
<path d="M14.2427 18.64H15.3927L17.8127 16.34L15.3927 14.05H14.2427L16.6627 16.34L14.2427 18.64Z" fill="white"/>
</svg>
