<svg width="47" height="30" viewBox="0 0 47 30" fill="none" xmlns="http://www.w3.org/2000/svg">
<path d="M32.2642 27.8376H13.9499C12.8644 27.8376 11.9824 26.9529 11.9824 25.8672V15.5753C11.9824 14.4882 12.8658 13.6049 13.9499 13.6049H32.2642C33.3498 13.6049 34.2318 14.4897 34.2318 15.5753V25.8672C34.2318 26.9543 33.3483 27.8376 32.2642 27.8376ZM13.9499 14.3656C13.2833 14.3656 12.742 14.9091 12.742 15.5753V25.8672C12.742 26.5349 13.2847 27.0769 13.9499 27.0769H32.2642C32.9309 27.0769 33.4722 26.5334 33.4722 25.8672V15.5753C33.4722 14.9077 32.9294 14.3656 32.2642 14.3656H13.9499Z" fill="white"/>
<path d="M20.6329 29.8286C20.4235 29.8286 20.2538 29.6588 20.2538 29.449V27.6382C20.2538 27.4285 20.4235 27.2586 20.6329 27.2586C20.8423 27.2586 21.012 27.4285 21.012 27.6382V29.449C21.012 29.6588 20.8423 29.8286 20.6329 29.8286Z" fill="white"/>
<path d="M25.5267 29.74C25.3173 29.74 25.1476 29.5702 25.1476 29.3604V27.7254C25.1476 27.5156 25.3173 27.3458 25.5267 27.3458C25.7361 27.3458 25.9058 27.5156 25.9058 27.7254V29.3604C25.9058 29.5702 25.7361 29.74 25.5267 29.74Z" fill="white"/>
<path d="M17.6181 30C17.4087 30 17.2391 29.8301 17.2391 29.6204C17.2391 29.4107 17.4087 29.2393 17.6181 29.2393L28.3955 29.2245C28.6049 29.2245 28.7745 29.3944 28.7745 29.6041C28.7745 29.8139 28.6049 29.9852 28.3955 29.9852L17.6181 30Z" fill="white"/>
<path d="M26.3232 25.8481H19.7155C19.506 25.8481 19.3364 25.6782 19.3364 25.4685V22.1599C19.3364 20.126 20.9884 18.4703 23.0208 18.4703C25.0533 18.4703 26.7052 20.1246 26.7052 22.1599V25.4685C26.7052 25.6782 26.5356 25.8481 26.3261 25.8481H26.3232ZM20.0945 25.0874H25.9427V22.1584C25.9427 20.544 24.6314 19.2295 23.0179 19.2295C21.4043 19.2295 20.0931 20.5426 20.0931 22.1584V25.0874H20.0945Z" fill="white"/>
<path d="M25.4795 20.0522C25.4707 20.0522 25.4633 20.0522 25.4544 20.0522C25.245 20.0389 25.0857 19.8572 25.1004 19.649C25.1004 19.6298 25.2111 17.6934 24.3069 16.7289C23.9706 16.3714 23.5429 16.1971 22.9957 16.1971C22.4485 16.1971 22.0267 16.3699 21.7007 16.7244C20.8158 17.686 20.9633 19.6209 20.9647 19.6416C20.9824 19.8513 20.8261 20.0345 20.6181 20.0522C20.4102 20.0699 20.2258 19.9148 20.2081 19.7051C20.2007 19.612 20.0311 17.4201 21.1402 16.2119C21.6122 15.6979 22.2361 15.4365 22.9957 15.4365C23.7553 15.4365 24.3822 15.6964 24.863 16.2104C25.9928 17.4172 25.8645 19.6046 25.8586 19.6977C25.8453 19.8986 25.6786 20.0537 25.4795 20.0537V20.0522Z" fill="white"/>
<path d="M23.4928 22.9398C23.3615 22.9398 23.2347 22.8718 23.1639 22.7507C23.0577 22.569 23.1196 22.3371 23.2996 22.2308C23.478 22.1259 23.5887 21.9339 23.5887 21.7286C23.5887 21.4081 23.3276 21.1466 23.0075 21.1466C22.6875 21.1466 22.4264 21.4081 22.4264 21.7286C22.4264 21.9339 22.5311 22.12 22.7066 22.2264C22.8866 22.3357 22.9426 22.569 22.835 22.7492C22.7258 22.9294 22.4928 22.9856 22.3128 22.8777C21.9087 22.6325 21.6668 22.2027 21.6668 21.7301C21.6668 20.9901 22.2686 20.3875 23.0075 20.3875C23.7465 20.3875 24.3482 20.9901 24.3482 21.7301C24.3482 22.2057 24.0931 22.6503 23.683 22.8895C23.6226 22.925 23.5562 22.9412 23.4913 22.9412L23.4928 22.9398Z" fill="white"/>
<path d="M24.012 24.4833H22.0916C21.9736 24.4833 21.8615 24.4272 21.7892 24.3327C21.717 24.2381 21.6934 24.1155 21.7258 24.0003L22.1477 22.4834C22.2037 22.2811 22.4131 22.1629 22.6152 22.219C22.8173 22.2752 22.9353 22.4849 22.8792 22.6872L22.5916 23.7212H23.4839L23.1432 22.705C23.0769 22.5056 23.1831 22.2899 23.3822 22.2235C23.5813 22.157 23.7966 22.2633 23.863 22.4627L24.3719 23.9796C24.4102 24.0963 24.391 24.2234 24.3202 24.3223C24.2494 24.4213 24.1344 24.4804 24.012 24.4804V24.4833Z" fill="white"/>
<path d="M3.72126 23.5749C1.66963 23.5749 0 21.9029 0 19.8484C0 17.7938 1.66963 16.1218 3.72126 16.1218C5.7729 16.1218 7.44253 17.7938 7.44253 19.8484C7.44253 21.9029 5.7729 23.5749 3.72126 23.5749ZM3.72126 16.8825C2.08851 16.8825 0.759592 18.2133 0.759592 19.8484C0.759592 21.4835 2.08851 22.8143 3.72126 22.8143C5.35402 22.8143 6.68293 21.4835 6.68293 19.8484C6.68293 18.2133 5.35402 16.8825 3.72126 16.8825Z" fill="white"/>
<path d="M10.5945 10.2669C9.1505 10.2669 7.97498 9.08967 7.97498 7.64366C7.97498 6.19764 9.1505 5.02045 10.5945 5.02045C12.0384 5.02045 13.2139 6.19764 13.2139 7.64366C13.2139 9.08967 12.0384 10.2669 10.5945 10.2669ZM10.5945 5.77964C9.56791 5.77964 8.73309 6.61564 8.73309 7.64218C8.73309 8.66872 9.56791 9.50472 10.5945 9.50472C11.621 9.50472 12.4544 8.66872 12.4544 7.64218C12.4544 6.61564 11.6195 5.77964 10.5945 5.77964Z" fill="white"/>
<path d="M23.1241 8.21378C20.863 8.21378 19.0237 6.37192 19.0237 4.10763C19.0237 1.84334 20.863 0 23.1241 0C25.3851 0 27.2244 1.84186 27.2244 4.10615C27.2244 6.37044 25.3851 8.2123 23.1241 8.2123V8.21378ZM23.1241 0.760672C21.2819 0.760672 19.7819 2.26134 19.7819 4.10763C19.7819 5.95392 21.2804 7.4531 23.1241 7.4531C24.9677 7.4531 26.4648 5.95244 26.4648 4.10763C26.4648 2.26281 24.9663 0.760672 23.1241 0.760672Z" fill="white"/>
<path d="M12.3024 20.2294H7.44253C7.23309 20.2294 7.06348 20.0595 7.06348 19.8498C7.06348 19.6401 7.23309 19.4702 7.44253 19.4702H12.3024C12.5119 19.4702 12.6815 19.6401 12.6815 19.8498C12.6815 20.0595 12.5119 20.2294 12.3024 20.2294Z" fill="white"/>
<path d="M15.7198 14.3656C15.5104 14.3656 15.3408 14.1958 15.3408 13.986V9.51947C15.3408 8.69528 14.6712 8.02323 13.8467 8.02323H13.1372C12.9278 8.02323 12.7582 7.85337 12.7582 7.64364C12.7582 7.4339 12.9278 7.26404 13.1372 7.26404H13.8467C15.0886 7.26404 16.0989 8.2758 16.0989 9.51947V13.986C16.0989 14.1958 15.9293 14.3656 15.7198 14.3656Z" fill="white"/>
<path d="M42.6787 23.5749C40.6271 23.5749 38.9575 21.9029 38.9575 19.8484C38.9575 17.7938 40.6271 16.1218 42.6787 16.1218C44.7304 16.1218 46.4 17.7938 46.4 19.8484C46.4 21.9029 44.7304 23.5749 42.6787 23.5749ZM42.6787 16.8825C41.046 16.8825 39.717 18.2133 39.717 19.8484C39.717 21.4835 41.046 22.8143 42.6787 22.8143C44.3115 22.8143 45.6404 21.4835 45.6404 19.8484C45.6404 18.2133 44.3115 16.8825 42.6787 16.8825Z" fill="white"/>
<path d="M35.807 10.2669C34.363 10.2669 33.1875 9.08967 33.1875 7.64366C33.1875 6.19764 34.363 5.02045 35.807 5.02045C37.2509 5.02045 38.4265 6.19764 38.4265 7.64366C38.4265 9.08967 37.2509 10.2669 35.807 10.2669ZM35.807 5.77964C34.7804 5.77964 33.9471 6.61564 33.9471 7.64218C33.9471 8.66872 34.7819 9.50472 35.807 9.50472C36.8321 9.50472 37.6669 8.66872 37.6669 7.64218C37.6669 6.61564 36.8321 5.77964 35.807 5.77964Z" fill="white"/>
<path d="M38.9575 20.2294H34.0976C33.8881 20.2294 33.7185 20.0595 33.7185 19.8498C33.7185 19.6401 33.8881 19.4702 34.0976 19.4702H38.9575C39.1669 19.4702 39.3365 19.6401 39.3365 19.8498C39.3365 20.0595 39.1669 20.2294 38.9575 20.2294Z" fill="white"/>
<path d="M30.6801 14.3656C30.4707 14.3656 30.3011 14.1958 30.3011 13.986V9.51947C30.3011 8.2758 31.3114 7.26404 32.5533 7.26404H33.2628C33.4722 7.26404 33.6418 7.4339 33.6418 7.64364C33.6418 7.85337 33.4722 8.02323 33.2628 8.02323H32.5533C31.7303 8.02323 31.0592 8.6938 31.0592 9.51947V13.986C31.0592 14.1958 30.8896 14.3656 30.6801 14.3656Z" fill="white"/>
<path d="M23.1064 14.3656C22.8969 14.3656 22.7273 14.1943 22.7273 13.9846L22.745 7.83272C22.745 7.62298 22.9161 7.45312 23.1241 7.45312C23.3335 7.45312 23.5031 7.62446 23.5031 7.8342L23.4854 13.986C23.4854 14.1958 23.3143 14.3656 23.1064 14.3656Z" fill="white"/>
</svg>
