<svg width="31" height="30" viewBox="0 0 31 30" fill="none" xmlns="http://www.w3.org/2000/svg">
<path d="M18.3538 24.0363C18.4382 24.5527 18.5169 25.0358 18.6073 25.5868C18.0861 25.6842 17.4875 25.7955 16.8067 25.9227C17.5538 25.9227 18.2234 25.8903 18.8888 25.9325C19.4719 25.9697 20.0167 26.3209 19.9307 26.9215H0V25.9266H14.8408C8.25294 25.2514 3.74065 18.9351 5.45433 12.5275C7.07634 6.46179 13.5506 3.07638 19.4637 5.19717C25.5218 7.37002 27.6073 13.6197 26.2379 17.9684C25.7323 17.8882 25.2365 17.8092 24.7588 17.7332C24.8453 17.1929 24.974 16.6159 25.0261 16.032C25.447 11.2962 22.1801 7.08876 17.438 6.24027C12.5251 5.36106 7.75588 8.63464 6.81211 13.5348C6.40241 15.6615 6.73421 17.6739 7.75114 19.5847C7.85013 19.7708 7.95987 19.8331 8.16902 19.8301C9.01037 19.8173 9.85257 19.825 10.7296 19.825V15.2684H12.773V19.8058H14.8283V10.1929H16.8713V19.7998H18.9266V12.2202H20.982V12.519C20.982 14.6679 20.979 16.8169 20.9867 18.9658C20.9876 19.1681 20.9183 19.274 20.7561 19.3999C20.2831 19.7669 19.8446 20.1745 19.7456 20.8293H8.57528C9.77769 22.3393 11.2327 23.3598 13.0023 23.936C14.7827 24.516 16.5799 24.5446 18.3534 24.0363H18.3538Z" fill="white"/>
<path d="M25.0153 29.9859C24.6254 30.0568 24.3926 29.851 24.2217 29.4481C23.8908 28.6692 22.8683 28.2778 22.0626 28.5762C21.5402 28.7695 20.9093 28.4545 20.778 27.9129C20.7466 27.7832 20.7858 27.6206 20.8361 27.4895C21.1925 26.5574 20.7991 25.5945 19.8799 25.2023C19.5791 25.0738 19.4181 24.8771 19.4461 24.5437C19.4538 24.449 19.4542 24.3525 19.4461 24.2582C19.4151 23.9099 19.5885 23.714 19.9018 23.5826C20.7828 23.2125 21.2161 22.2147 20.8391 21.3461C20.6446 20.8984 20.8718 20.6607 21.1447 20.3854C21.3964 20.131 21.6387 20.0397 21.9972 20.1886C22.8773 20.554 23.8977 20.1383 24.2549 19.2663C24.4279 18.8438 24.736 18.8028 25.1259 18.8007C25.4973 18.799 25.7516 18.8929 25.9049 19.2591C26.2728 20.1366 27.2798 20.5617 28.1582 20.1891C28.5898 20.006 28.8321 20.1997 29.105 20.4682C29.3645 20.7234 29.4837 20.9646 29.3258 21.338C28.9496 22.2279 29.3748 23.2049 30.2837 23.5924C30.5845 23.7209 30.7455 23.9176 30.7184 24.2505C30.7106 24.3453 30.7102 24.4417 30.7184 24.5361C30.7489 24.8843 30.5755 25.0807 30.2626 25.2121C29.3817 25.5813 28.9518 26.5779 29.3245 27.4486C29.4988 27.8562 29.3361 28.0999 29.0667 28.3658C28.8037 28.6253 28.5614 28.7734 28.1664 28.6073C27.3315 28.2561 26.3115 28.6534 25.9367 29.4379C25.6798 29.9757 25.6626 29.9863 25.0153 29.9863V29.9859ZM28.1556 24.411C28.1655 22.7448 26.7716 21.3538 25.088 21.3491C23.42 21.3449 22.0295 22.7076 22.0084 24.3675C21.9878 26.0294 23.3757 27.4298 25.0596 27.446C26.7367 27.4622 28.1457 26.0811 28.1556 24.411Z" fill="white"/>
<path d="M16.8829 2.03714C16.8829 2.3406 16.8829 2.59369 16.8829 2.84721C16.8829 3.10073 16.8829 3.33163 16.8829 3.58729H14.8443V2.03714C14.3532 2.03714 13.888 2.03842 13.4228 2.03714C12.9395 2.03543 12.7454 1.82203 12.7906 1.34529C12.856 0.652163 13.496 0.024335 14.1983 0.013665C15.3082 -0.00340716 16.4185 -0.00596798 17.5284 0.0145186C18.2832 0.0286031 18.937 0.736243 18.9322 1.48016C18.9301 1.83441 18.7429 2.03159 18.384 2.03629C17.8955 2.04269 17.407 2.03799 16.8829 2.03799V2.03714Z" fill="white"/>
<path d="M5.3093 24.3231C3.82931 23.8357 2.34931 23.3479 0.836182 22.8498C0.946783 22.5182 1.04878 22.2126 1.15981 21.8805C1.72745 22.064 2.27013 22.2395 2.86918 22.4332C2.07819 20.9791 1.52776 19.4973 1.24072 17.9211C0.954099 16.3479 0.920962 14.7734 1.14819 13.1456C1.48344 13.1908 1.80362 13.2339 2.16469 13.283C1.61642 17.4132 2.77364 21.0495 5.37515 24.271C5.3532 24.2885 5.33168 24.3056 5.30973 24.3231H5.3093Z" fill="white"/>
<path d="M26.4041 6.172C27.8836 6.65941 29.3632 7.14682 30.8824 7.64703C30.7739 7.97567 30.6732 8.28083 30.5617 8.61886C29.9971 8.43533 29.4553 8.25949 28.8481 8.06274C30.4468 10.9885 31.0123 14.0546 30.5751 17.35C30.2433 17.3064 29.9231 17.2646 29.5543 17.2164C30.1034 13.0879 28.9419 9.4443 26.3348 6.21468C26.358 6.20059 26.3808 6.18651 26.4041 6.17242V6.172Z" fill="white"/>
<path d="M25.0966 23.3824C25.66 23.3876 26.105 23.8344 26.1054 24.3961C26.1054 24.9718 25.6501 25.4174 25.0665 25.4119C24.4924 25.4063 24.0474 24.9445 24.0586 24.3654C24.0694 23.8075 24.5243 23.3769 25.0966 23.382V23.3824Z" fill="white"/>
</svg>
