<svg width="33" height="38" viewBox="0 0 33 38" fill="none" xmlns="http://www.w3.org/2000/svg">
<rect width="33" height="38" fill="#E5E5E5"/>
<rect width="1512" height="2843" transform="translate(-451 -966)" fill="white"/>
<g filter="url(#filter0_d_0_1)">
<g filter="url(#filter1_d_0_1)">
<rect x="-451" y="-223" width="1512" height="702" fill="#FF7D23" fill-opacity="0.1" shape-rendering="crispEdges"/>
<rect x="-450.5" y="-222.5" width="1511" height="701" stroke="black" shape-rendering="crispEdges"/>
</g>
<g filter="url(#filter2_d_0_1)">
<rect x="-103" y="-53" width="232.656" height="191" fill="white"/>
<ellipse cx="16.5907" cy="14.5" rx="37.5907" ry="36.5" fill="#FF7D23" fill-opacity="0.7"/>
<g filter="url(#filter3_d_0_1)">
<path d="M9.74637 3.44041L9.74635 3.44042C7.73375 5.32854 6.52344 7.87785 6.33681 10.6211L6.3368 10.6212C6.29953 11.167 6.18428 11.6957 5.99122 12.1913L9.74637 3.44041ZM9.74637 3.44041C11.7677 1.54395 14.4074 0.5 17.1808 0.5C20.096 0.5 22.7774 1.46664 24.7595 3.20436L24.8657 3.30026C26.9164 5.15117 28.0495 7.73972 28.0495 10.6027C28.0495 13.9237 26.5628 17.4467 24.2912 19.558C23.6398 20.163 23.2612 21.0086 23.2612 21.8839V25.627C23.2612 25.6316 23.2578 25.635 23.2532 25.635C23.2486 25.635 23.2452 25.6316 23.2452 25.627V21.8839C23.2452 21.0138 23.6199 20.1595 24.2803 19.546L24.2804 19.5459C26.5727 17.4153 28.0339 13.9124 28.0339 10.6022C28.0339 7.75767 26.9076 5.1639 24.8554 3.31169C22.8486 1.5003 20.1186 0.516027 17.1808 0.516027C11.4939 0.516027 6.73825 4.95384 6.35272 10.6227L6.35271 10.6228C6.31523 11.1747 6.19808 11.7043 6.00625 12.1976L6.00621 12.1977L4.56813 15.898L4.50263 16.0666C4.5071 16.0249 4.51725 15.9833 4.53315 15.9424L4.53323 15.9422L5.99109 12.1917L9.74637 3.44041ZM4.93673 16.5877C4.89542 16.5842 4.85571 16.5759 4.81814 16.5629L4.99264 16.5774L7.56173 16.7916C7.60111 16.7949 7.63937 16.8032 7.67581 16.8159L7.53029 16.8038L4.9368 16.5877L4.93673 16.5877ZM7.97948 17.2059L7.95405 17.0661C7.97192 17.1037 7.98495 17.144 7.99225 17.186L7.99593 17.2073L8.00142 17.2281L8.10326 17.6141C8.10381 17.6162 8.10368 17.6179 8.10335 17.6191L8.10332 17.6192L7.94742 18.186L7.87591 18.446L8.05382 18.6485C8.10892 18.7113 8.17464 18.7926 8.249 18.8971L8.24963 18.898C8.26293 18.9166 8.29838 18.9851 8.33554 19.1349C8.37043 19.2756 8.3985 19.4529 8.41948 19.658C8.4614 20.0677 8.47098 20.5468 8.46621 20.9834L8.4656 21.0389L8.47722 21.0933L8.56827 21.5195L8.56934 21.5266C8.62207 21.9061 8.94613 22.1874 9.32633 22.1901L9.33626 22.1902L9.34619 22.1899L12.9785 22.0719L12.9795 22.0718C13.1529 22.0659 13.3135 22.1279 13.4393 22.2496C13.5641 22.3703 13.6318 22.53 13.6318 22.7042V25.6275C13.6318 25.6321 13.6284 25.6355 13.6238 25.6355C13.6192 25.6355 13.6158 25.6321 13.6158 25.6275V22.7042C13.6158 22.4901 13.5104 22.3407 13.4284 22.2613L13.4284 22.2612L13.423 22.2561C13.3402 22.1782 13.1901 22.0828 12.9831 22.0878L12.9791 22.0879L9.34801 22.2057H9.34797H9.34792H9.34787H9.34783H9.34778H9.34774H9.34769H9.34765H9.3476H9.34756H9.34751H9.34747H9.34742H9.34737H9.34733H9.34728H9.34724H9.34719H9.34715H9.3471H9.34705H9.34701H9.34696H9.34692H9.34687H9.34683H9.34678H9.34674H9.34669H9.34665H9.3466H9.34655H9.34651H9.34646H9.34642H9.34637H9.34633H9.34628H9.34624H9.34619H9.34614H9.3461H9.34605H9.34601H9.34596H9.34592H9.34587H9.34583H9.34578H9.34573H9.34569H9.34564H9.3456H9.34555H9.34551H9.34546H9.34542H9.34537H9.34532H9.34528H9.34523H9.34519H9.34514H9.3451H9.34505H9.34501H9.34496H9.34491H9.34487H9.34482H9.34478H9.34473H9.34469H9.34464H9.3446H9.34455H9.34451H9.34446H9.34441H9.34437H9.34432H9.34428H9.34423H9.34419H9.34414H9.3441H9.34405H9.344H9.34396H9.34391H9.34387H9.34382H9.34378H9.34373H9.34369H9.34364H9.34359H9.34355H9.3435H9.34346H9.34341H9.34337H9.34332H9.34328H9.34323H9.34318H9.34314H9.34309H9.34305H9.343H9.34296H9.34291H9.34287H9.34282H9.34277H9.34273H9.34268H9.34264H9.34259H9.34255H9.3425H9.34246H9.34241H9.34237H9.34232H9.34227H9.34223H9.34218H9.34214H9.34209H9.34205H9.342H9.34196H9.34191H9.34186H9.34182H9.34177H9.34173H9.34168H9.34164H9.34159H9.34155H9.3415H9.34145H9.34141H9.34136H9.34132H9.34127H9.34123H9.34118H9.34114H9.34109H9.34104H9.341H9.34095H9.34091H9.34086H9.34082H9.34077H9.34073H9.34068H9.34063H9.34059H9.34054H9.3405H9.34045H9.34041H9.34036H9.34032H9.34027H9.34023H9.34018H9.34013H9.34009H9.34004H9.34H9.33995H9.33991H9.33986H9.33982H9.33977H9.33972H9.33968H9.33963H9.33959H9.33954H9.3395H9.33945H9.33941H9.33936H9.33931H9.33927H9.33922H9.33918H9.33913H9.33909H9.33904H9.339H9.33895H9.3389H9.33886H9.33881H9.33877H9.33872H9.33868H9.33863H9.33859H9.33854H9.3385H9.33845H9.3384H9.33836H9.33831H9.33827H9.33822H9.33818H9.33813H9.33809H9.33804H9.33799H9.33795H9.3379H9.33786H9.33781H9.33777H9.33772H9.33768H9.33763H9.33758H9.33754H9.33749H9.33745H9.3374H9.33736H9.33731H9.33727H9.33722H9.33717H9.33713H9.33708H9.33704H9.33699H9.33695H9.3369H9.33686H9.33681H9.33676H9.33672H9.33667H9.33663H9.33658H9.33654H9.33649H9.33645H9.3364H9.33636H9.33631H9.33626H9.33622H9.33617H9.33613H9.33608H9.33604H9.33599H9.33595H9.3359H9.33585H9.33581H9.33576H9.33572H9.33567H9.33563H9.33558H9.33554H9.33549H9.33544H9.3354H9.33535H9.33531H9.33526H9.33522H9.33517H9.33513H9.33508H9.33503H9.33499H9.33494H9.3349H9.33485H9.33481H9.33476H9.33472H9.33467H9.33462H9.33458H9.33453H9.33449H9.33444H9.3344H9.33435H9.33431H9.33426H9.33422H9.33417H9.33412H9.33408H9.33403H9.33399H9.33394H9.3339H9.33385H9.33381H9.33376H9.33371H9.33367H9.33362H9.33358H9.33353H9.33349H9.33344H9.3334H9.33335H9.3333H9.33326H9.33321H9.33317H9.33312H9.33308H9.33303H9.33299H9.33294H9.33289H9.33285H9.3328H9.33276H9.33271H9.33267H9.33262H9.33258H9.33253H9.33248H9.33244H9.33239H9.33235H9.3323H9.33226H9.33221H9.33217H9.33212H9.33208H9.33203H9.33198H9.33194H9.33189C8.94361 22.2057 8.61185 21.9195 8.55437 21.5367L8.55209 21.5215L8.54887 21.5065L8.4499 21.0435C8.44985 21.0432 8.4498 21.043 8.44975 21.0428C8.44923 21.0401 8.44915 21.0386 8.44914 21.0384C8.45466 20.6261 8.44166 20.1991 8.41653 19.8464C8.40398 19.6703 8.38806 19.5078 8.36897 19.3721C8.3522 19.253 8.32693 19.1057 8.28063 18.9921L8.25792 18.9363L8.22262 18.8875C8.06987 18.6765 7.95798 18.5653 7.90205 18.5156L7.86503 18.4827L7.85142 18.4747C7.85183 18.473 7.85231 18.4711 7.85284 18.4692L8.05193 17.7461L8.08772 17.6162L8.05332 17.4858L7.97952 17.2061L7.9795 17.2061L7.97948 17.2059Z" fill="white" stroke="black"/>
<path d="M15.8652 14.6029L15.6937 14.6614L15.5222 14.6029C15.3115 14.5312 15.1617 14.3321 15.1617 14.1001C15.1617 13.8065 15.4002 13.568 15.6937 13.568C15.9874 13.568 16.2258 13.8062 16.2258 14.1001C16.2258 14.3321 16.0759 14.5312 15.8652 14.6029ZM21.752 13.5711L21.5823 13.6291L21.4085 13.5699C21.1977 13.4981 21.048 13.2994 21.048 13.067C21.048 12.7842 21.2689 12.5527 21.5476 12.536H21.581C21.8747 12.536 22.1131 12.7741 22.1131 13.068C22.1131 13.2996 21.9635 13.4988 21.752 13.5711ZM18.8098 9.51424L18.6391 9.57257L18.4673 9.51407C18.2565 9.44228 18.1068 9.24354 18.1068 9.01118C18.1068 8.71763 18.3453 8.47913 18.6388 8.47913C18.9325 8.47913 19.1709 8.7173 19.1709 9.01118C19.1709 9.24282 19.0213 9.44197 18.8098 9.51424Z" fill="white" stroke="black"/>
</g>
<path d="M17.8068 -1C11.0915 -1 5.59413 4.21594 5.14523 10.8177C5.10267 11.4471 4.96931 12.0674 4.74117 12.6553L3.03752 17.0381C2.90529 17.3781 3.1374 17.7498 3.50117 17.7799L6.56683 18.0352C6.82334 18.0568 7.03048 18.2537 7.06453 18.5091L7.19165 18.9904L6.91641 19.9897C6.91641 19.9897 7.08383 20.1015 7.36361 20.4925C7.64282 20.8835 7.61444 22.9896 7.61444 22.9896L7.73532 23.5537C7.79605 24.0088 8.18592 24.3476 8.64503 24.3431L12.8985 24.2052C13.3105 24.1915 13.6521 24.5224 13.6521 24.935V28.3508C13.6521 28.7094 13.9427 29.0006 14.3019 29.0006H19.2318V28.7855C19.1836 28.7662 19.1382 28.7372 19.099 28.6981L15.9057 25.5047C15.8313 25.4304 15.7899 25.3299 15.7899 25.225V15.6619C15.7899 15.6398 15.7928 15.6177 15.7967 15.5967C15.3217 15.4344 14.9795 14.9855 14.9795 14.456C14.9795 13.7897 15.5198 13.25 16.1855 13.25C16.8512 13.25 17.3914 13.7903 17.3914 14.456C17.3914 14.986 17.0492 15.4349 16.5742 15.5967C16.5776 15.6182 16.581 15.6398 16.581 15.6619V25.061L19.2313 27.7112V25.6784V9.71562C19.2313 9.69349 19.2341 9.67136 19.2381 9.65036C18.7631 9.48805 18.4209 9.03916 18.4209 8.50968C18.4209 7.84343 18.9611 7.30373 19.6268 7.30373C20.2925 7.30373 20.8328 7.84399 20.8328 8.50968C20.8328 9.03973 20.4906 9.48862 20.0156 9.65036C20.019 9.67193 20.0224 9.69349 20.0224 9.71562V24.9469L22.6681 23.2024V14.4554C22.6681 14.4333 22.6709 14.4117 22.6749 14.3902C22.1999 14.2279 21.8577 13.779 21.8577 13.2495C21.8577 12.5832 22.3979 12.0435 23.0636 12.0435C23.7293 12.0435 24.2696 12.5838 24.2696 13.2495C24.2696 13.7795 23.9274 14.2284 23.4524 14.3902C23.4558 14.4117 23.4592 14.4333 23.4592 14.4554V23.4158C23.4592 23.5486 23.3922 23.6728 23.2815 23.746L20.0224 25.8952V29.0006H24.2537C24.6123 29.0006 24.9035 28.71 24.9035 28.3508V23.977C24.9035 22.939 25.3501 21.959 26.11 21.2524C28.7983 18.7543 30.4985 14.6296 30.4985 10.795C30.4985 3.7852 24.8161 -1 17.8068 -1Z" fill="white"/>
</g>
</g>
<defs>
<filter id="filter0_d_0_1" x="-455" y="-223" width="1520" height="710" filterUnits="userSpaceOnUse" color-interpolation-filters="sRGB">
<feFlood flood-opacity="0" result="BackgroundImageFix"/>
<feColorMatrix in="SourceAlpha" type="matrix" values="0 0 0 0 0 0 0 0 0 0 0 0 0 0 0 0 0 0 127 0" result="hardAlpha"/>
<feOffset dy="4"/>
<feGaussianBlur stdDeviation="2"/>
<feComposite in2="hardAlpha" operator="out"/>
<feColorMatrix type="matrix" values="0 0 0 0 0 0 0 0 0 0 0 0 0 0 0 0 0 0 0.25 0"/>
<feBlend mode="normal" in2="BackgroundImageFix" result="effect1_dropShadow_0_1"/>
<feBlend mode="normal" in="SourceGraphic" in2="effect1_dropShadow_0_1" result="shape"/>
</filter>
<filter id="filter1_d_0_1" x="-455" y="-223" width="1520" height="710" filterUnits="userSpaceOnUse" color-interpolation-filters="sRGB">
<feFlood flood-opacity="0" result="BackgroundImageFix"/>
<feColorMatrix in="SourceAlpha" type="matrix" values="0 0 0 0 0 0 0 0 0 0 0 0 0 0 0 0 0 0 127 0" result="hardAlpha"/>
<feOffset dy="4"/>
<feGaussianBlur stdDeviation="2"/>
<feComposite in2="hardAlpha" operator="out"/>
<feColorMatrix type="matrix" values="0 0 0 0 0 0 0 0 0 0 0 0 0 0 0 0 0 0 0.25 0"/>
<feBlend mode="normal" in2="BackgroundImageFix" result="effect1_dropShadow_0_1"/>
<feBlend mode="normal" in="SourceGraphic" in2="effect1_dropShadow_0_1" result="shape"/>
</filter>
<filter id="filter2_d_0_1" x="-107" y="-53" width="240.656" height="199" filterUnits="userSpaceOnUse" color-interpolation-filters="sRGB">
<feFlood flood-opacity="0" result="BackgroundImageFix"/>
<feColorMatrix in="SourceAlpha" type="matrix" values="0 0 0 0 0 0 0 0 0 0 0 0 0 0 0 0 0 0 127 0" result="hardAlpha"/>
<feOffset dy="4"/>
<feGaussianBlur stdDeviation="2"/>
<feComposite in2="hardAlpha" operator="out"/>
<feColorMatrix type="matrix" values="0 0 0 0 0 0 0 0 0 0 0 0 0 0 0 0 0 0 0.25 0"/>
<feBlend mode="normal" in2="BackgroundImageFix" result="effect1_dropShadow_0_1"/>
<feBlend mode="normal" in="SourceGraphic" in2="effect1_dropShadow_0_1" result="shape"/>
</filter>
<filter id="filter3_d_0_1" x="0" y="0" width="32.5495" height="38" filterUnits="userSpaceOnUse" color-interpolation-filters="sRGB">
<feFlood flood-opacity="0" result="BackgroundImageFix"/>
<feColorMatrix in="SourceAlpha" type="matrix" values="0 0 0 0 0 0 0 0 0 0 0 0 0 0 0 0 0 0 127 0" result="hardAlpha"/>
<feOffset dy="4"/>
<feGaussianBlur stdDeviation="2"/>
<feComposite in2="hardAlpha" operator="out"/>
<feColorMatrix type="matrix" values="0 0 0 0 0 0 0 0 0 0 0 0 0 0 0 0 0 0 0.25 0"/>
<feBlend mode="normal" in2="BackgroundImageFix" result="effect1_dropShadow_0_1"/>
<feBlend mode="normal" in="SourceGraphic" in2="effect1_dropShadow_0_1" result="shape"/>
</filter>
</defs>
</svg>
