<svg width="30" height="34" viewBox="0 0 30 34" fill="none" xmlns="http://www.w3.org/2000/svg">
<path d="M0 2.38598C0 1.06807 0.98625 0 2.20312 0H27.7969C29.0138 0 30 1.06807 30 2.38598V30.9262C30 32.2441 29.0138 33.3122 27.7969 33.3122H2.20312C0.98625 33.3122 0 32.2441 0 30.9262V2.38598ZM9.26812 27.8864V12.8439H4.76625V27.8864H9.26812ZM7.01813 10.789C8.5875 10.789 9.56437 9.63554 9.56437 8.19063C9.53625 6.71448 8.58938 5.59228 7.04813 5.59228C5.50688 5.59228 4.5 6.71657 4.5 8.19063C4.5 9.63554 5.47687 10.789 6.98812 10.789H7.01813ZM16.2206 27.8864V19.4855C16.2206 19.0358 16.2506 18.5861 16.3706 18.2655C16.695 17.3681 17.4356 16.4375 18.6806 16.4375C20.31 16.4375 20.9606 17.8158 20.9606 19.8395V27.8864H25.4625V19.2586C25.4625 14.6365 23.2425 12.4879 20.28 12.4879C17.8913 12.4879 16.8206 13.9453 16.2206 14.9717V15.0238H16.1906C16.2006 15.0064 16.2106 14.9891 16.2206 14.9717V12.8439H11.7206C11.7769 14.2555 11.7206 27.8864 11.7206 27.8864H16.2206Z" fill="#1666C2"/>
</svg>
