<svg width="154" height="69" viewBox="0 0 154 69" fill="none" xmlns="http://www.w3.org/2000/svg">
<g clip-path="url(#clip0_109_85)">
<path d="M109.121 30.7259L95.7773 17.4343L87.9554 24.6791L94.4919 30.8815L98.8568 26.6241L95.809 23.697L92.1111 26.5116L91.7935 26.1914L94.9415 22.9048C95.4139 22.4304 95.9301 22.2761 96.5385 22.7953L99.7079 25.8618C100.087 26.3382 100.171 26.8058 99.8571 27.2618C99.8571 27.2618 97.9389 29.8212 95.3052 32.1298C94.4839 32.7326 93.7703 32.5836 93.1221 31.9753L86.1566 25.8969C85.5134 25.158 85.6508 24.2329 86.3231 23.5434L94.3339 14.9797C95.0907 14.1006 96.8485 14.1568 97.6111 15.0063L111.58 28.3929L109.121 30.7259Z" fill="#FF7D23"/>
<g opacity="0.686" filter="url(#filter0_f_109_85)">
<path d="M86.0652 24.728C86.041 24.9868 86.1161 25.2339 86.338 25.4951C86.3421 25.5 86.3414 25.5053 86.3453 25.5104L93.2637 31.5315L93.2787 31.5468C93.5459 31.7978 93.7746 31.9113 93.9833 31.9339C94.1885 31.956 94.4191 31.9006 94.7411 31.6683C94.7467 31.6642 94.7508 31.6649 94.7564 31.6608C97.3009 29.4217 99.1561 26.9564 99.1816 26.9226C99.3465 26.7273 99.3906 26.3001 99.2604 26.122L95.9908 23.0842C95.6416 22.8964 95.3233 23.0619 95.1126 23.2704L91.9458 26.1235L95.2488 23.2325C95.4549 23.0757 95.6183 23.2449 95.8065 23.4227L98.8462 26.356C99.062 26.5596 99.175 26.736 98.9631 26.9438L94.6576 31.2509C94.4566 31.4489 94.0975 31.4526 93.8924 31.2584L87.353 25.0551C87.1367 24.8469 87.1404 24.4539 87.3608 24.2498L95.1807 17.006C95.3849 16.8165 95.7379 16.8199 95.9382 17.0136L108.903 29.9295L110.555 28.3655L97.0068 15.381C96.9964 15.3712 96.9862 15.361 96.9765 15.3506C96.7318 15.0784 96.2435 14.8797 95.7413 14.8724C95.2389 14.8649 94.7663 15.0447 94.5289 15.3202C94.524 15.3254 94.5189 15.3305 94.5139 15.3355L86.4968 23.9007L86.4895 23.9082C86.2252 24.1794 86.0895 24.4651 86.0652 24.7283V24.728Z" fill="#FFB44F"/>
</g>
<g opacity="0.567" filter="url(#filter1_f_109_85)">
<path d="M86.2788 24.0983L94.7905 15.0632C94.7905 15.0632 95.484 14.6631 96.0936 14.6631C96.7032 14.6631 97.2706 15.1896 97.2706 15.1896L105.383 22.8766L104.942 23.0029L96.661 15.2528C96.661 15.2528 96.2619 15.0001 95.7573 15.0632C95.2529 15.1264 94.8116 15.5055 94.8116 15.5055L86.2788 24.0983Z" fill="white"/>
</g>
<path d="M101.995 34.6461L88.105 35.8886C88.105 35.8886 88.7874 39.266 86.8453 38.9721C84.9033 38.6782 86.1448 34.3626 86.1448 34.3626L102.085 33.8083L101.995 34.6461Z" fill="#FF7D23"/>
<g opacity="0.686" filter="url(#filter2_f_109_85)">
<path d="M86.1082 37.169C86.1285 37.4134 86.1731 37.6382 86.2376 37.8218C86.3664 38.1886 86.5242 38.376 86.8747 38.4286C87.262 38.4866 87.4081 38.3931 87.5488 38.2076C87.69 38.0223 87.7876 37.6861 87.8207 37.319C87.8872 36.5846 87.7283 35.77 87.7283 35.77C87.6886 35.5701 87.851 35.3539 88.0537 35.337L98.7643 34.4049L98.7616 34.1279L86.4082 34.5336C86.3307 34.8325 86.158 35.539 86.107 36.3944C86.091 36.66 86.0873 36.9241 86.1077 37.1688L86.1082 37.169Z" fill="#FFB44F"/>
</g>
<g opacity="0.567" filter="url(#filter3_f_109_85)">
<path d="M99.0613 34.2159C99.0613 34.2159 86.5213 34.5388 86.4408 34.5791C86.3603 34.6194 86.1188 35.9102 86.1188 36.1726C86.1188 36.4348 86.1993 37.0196 86.1993 37.0196C86.1993 37.0196 86.5012 35.0026 86.6624 34.922C86.8232 34.8413 99.0613 34.4379 99.0613 34.4379V34.2159Z" fill="white"/>
</g>
<path d="M95.0894 39.3699C95.7797 39.6946 96.7241 39.1365 97.1985 38.1234C97.673 37.1104 97.498 36.0259 96.8076 35.7012C96.1172 35.3765 95.1729 35.9345 94.6984 36.9476C94.224 37.9607 94.399 39.0452 95.0894 39.3699Z" fill="#FF7D23"/>
<path d="M91.3323 40.8452C92.0227 41.1699 92.967 40.6118 93.4415 39.5987C93.916 38.5856 93.741 37.5012 93.0506 37.1765C92.3602 36.8518 91.4159 37.4098 90.9414 38.4229C90.4669 39.436 90.642 40.5205 91.3323 40.8452Z" fill="#FF7D23"/>
<g opacity="0.686" filter="url(#filter4_f_109_85)">
<path d="M95.4029 38.583C95.9056 38.8195 96.5934 38.4131 96.9389 37.6753C97.2845 36.9375 97.157 36.1477 96.6542 35.9112C96.1514 35.6747 95.4637 36.0811 95.1182 36.819C94.7726 37.5568 94.9001 38.3466 95.4029 38.583Z" fill="#FFB44F"/>
</g>
<g opacity="0.686" filter="url(#filter5_f_109_85)">
<path d="M91.5846 39.9279C92.0696 40.156 92.7329 39.764 93.0661 39.0524C93.3994 38.3408 93.2765 37.5791 92.7915 37.351C92.3066 37.1229 91.6433 37.5149 91.3101 38.2265C90.9768 38.9381 91.0997 39.6998 91.5846 39.9279Z" fill="#FFB44F"/>
</g>
<path d="M116.396 38.5247L129.74 51.8161L137.562 44.5713L131.025 38.3692L126.66 42.6263L129.708 45.5534L133.406 42.7391L133.724 43.059L130.576 46.3455C130.104 46.8203 129.587 46.9745 128.979 46.4553L125.809 43.3889C125.43 42.9125 125.346 42.4449 125.66 41.9886C125.66 41.9886 127.578 39.4295 130.212 37.1206C131.033 36.5178 131.747 36.6668 132.395 37.2754L139.361 43.3537C140.004 44.0924 139.866 45.0177 139.194 45.707L131.184 54.2709C130.426 55.1498 128.669 55.0936 127.906 54.2443L113.937 40.8578L116.396 38.5247Z" fill="#FF7D23"/>
<g opacity="0.686" filter="url(#filter6_f_109_85)">
<path d="M139.452 44.5227C139.476 44.2639 139.401 44.0168 139.179 43.7556C139.175 43.7507 139.176 43.7454 139.172 43.7403L132.253 37.7192L132.238 37.7039C131.971 37.4529 131.743 37.3394 131.534 37.3168C131.329 37.2947 131.098 37.3501 130.776 37.5824C130.77 37.5865 130.766 37.5858 130.761 37.5899C128.216 39.829 126.361 42.2943 126.336 42.3281C126.171 42.5234 126.127 42.9506 126.257 43.1287L129.526 46.1665C129.876 46.3543 130.194 46.1888 130.405 45.9803L133.571 43.1272L130.268 46.0182C130.062 46.175 129.899 46.0058 129.711 45.828L126.671 42.8947C126.455 42.6911 126.342 42.5147 126.554 42.3069L130.86 37.9998C131.061 37.8018 131.42 37.7981 131.625 37.9923L138.164 44.1956C138.38 44.4038 138.377 44.7968 138.156 45.0009L130.336 52.2447C130.132 52.4342 129.779 52.4308 129.579 52.2371L116.614 39.3212L114.962 40.8852L128.51 53.8697C128.521 53.8795 128.531 53.8897 128.541 53.9001C128.785 54.1723 129.274 54.371 129.776 54.3783C130.278 54.3858 130.751 54.206 130.988 53.9305C130.993 53.9253 130.998 53.9202 131.003 53.9152L139.02 45.35L139.028 45.3425C139.292 45.0713 139.428 44.7856 139.452 44.5224V44.5227Z" fill="#FFB44F"/>
</g>
<path d="M123.522 34.6046L137.413 33.3621C137.413 33.3621 136.73 29.9847 138.672 30.2786C140.614 30.5722 139.372 34.8878 139.372 34.8878L123.433 35.4421L123.522 34.6046Z" fill="#FF7D23"/>
<g opacity="0.686" filter="url(#filter7_f_109_85)">
<path d="M139.402 31.9924C139.381 31.748 139.337 31.5233 139.272 31.3396C139.143 30.9728 138.986 30.7854 138.635 30.7328C138.248 30.6749 138.102 30.7683 137.961 30.9538C137.82 31.1391 137.722 31.4753 137.689 31.8424C137.623 32.5768 137.781 33.3914 137.781 33.3914C137.821 33.5913 137.659 33.8075 137.456 33.8244L126.745 34.7566L126.748 35.0336L139.102 34.6278C139.179 34.3289 139.352 33.6224 139.403 32.767C139.419 32.5014 139.422 32.2373 139.402 31.9926L139.402 31.9924Z" fill="#FFB44F"/>
</g>
<g opacity="0.567" filter="url(#filter8_f_109_85)">
<path d="M126.785 34.6617L137.751 33.6125C137.751 33.6125 137.266 30.7937 138.222 30.6316C139.178 30.4698 139.331 31.3362 139.331 31.3362C139.331 31.3362 138.789 30.7191 138.249 30.9791C137.727 31.2308 138.074 33.7746 138.074 33.7746L126.802 34.8352L126.785 34.6617Z" fill="white"/>
</g>
<path d="M130.429 29.8826C129.739 29.5579 128.795 30.116 128.32 31.1291C127.846 32.1421 128.021 33.2266 128.711 33.5513C129.401 33.876 130.346 33.318 130.82 32.3049C131.295 31.2918 131.12 30.2073 130.429 29.8826Z" fill="#FF7D23"/>
<path d="M134.186 28.4073C133.496 28.0826 132.552 28.6407 132.077 29.6538C131.603 30.6669 131.778 31.7513 132.468 32.076C133.159 32.4007 134.103 31.8427 134.577 30.8296C135.052 29.8165 134.877 28.732 134.186 28.4073Z" fill="#FF7D23"/>
<g opacity="0.686" filter="url(#filter9_f_109_85)">
<path d="M130.236 30.2198C129.733 29.9834 129.045 30.3898 128.699 31.1276C128.354 31.8654 128.481 32.6552 128.984 32.8917C129.487 33.1281 130.175 32.7217 130.52 31.9839C130.866 31.2461 130.738 30.4563 130.236 30.2198Z" fill="#FFB44F"/>
</g>
<g opacity="0.686" filter="url(#filter10_f_109_85)">
<path d="M134.021 28.7399C133.536 28.5119 132.873 28.9038 132.539 29.6154C132.206 30.327 132.329 31.0888 132.814 31.3168C133.299 31.5449 133.962 31.1529 134.295 30.4413C134.629 29.7297 134.506 28.968 134.021 28.7399Z" fill="#FFB44F"/>
</g>
<path d="M108.867 38.2701L95.6033 51.6419L102.833 59.4799L109.023 52.9299L104.774 48.5559L101.853 51.61L104.662 55.3159L104.342 55.6342L101.062 52.4796C100.589 52.0063 100.435 51.489 100.953 50.8793L104.013 47.7031C104.489 47.323 104.955 47.2393 105.41 47.5535C105.41 47.5535 107.964 49.4757 110.268 52.1152C110.87 52.9379 110.721 53.6533 110.114 54.3025L104.048 61.2828C103.311 61.9271 102.388 61.7893 101.7 61.116L93.1539 53.0885C92.2765 52.3298 92.3326 50.5684 93.1804 49.8042L106.539 35.8065L108.867 38.2701Z" fill="#FF7D23"/>
<g opacity="0.686" filter="url(#filter11_f_109_85)">
<path d="M102.977 61.1214C103.235 61.1457 103.481 61.0703 103.742 60.848C103.747 60.8439 103.752 60.8446 103.757 60.8407L109.766 53.9079L109.781 53.8929C110.032 53.6251 110.145 53.396 110.168 53.1868C110.19 52.9812 110.134 52.7501 109.903 52.4274C109.898 52.4219 109.899 52.4177 109.895 52.4121C107.661 49.8623 105.2 48.0032 105.167 47.9777C104.972 47.8125 104.546 47.7683 104.368 47.8988L101.336 51.1751C101.149 51.525 101.314 51.8441 101.522 52.0552L104.369 55.2286L101.484 51.9186C101.328 51.7121 101.497 51.5484 101.674 51.3598L104.601 48.3138C104.804 48.0975 104.981 47.9843 105.188 48.1966L109.486 52.5111C109.684 52.7125 109.687 53.0723 109.493 53.2779L103.303 59.8309C103.095 60.0477 102.703 60.044 102.499 59.8231L95.2707 51.9869C95.0816 51.7823 95.085 51.4286 95.2782 51.2279L108.167 38.2356L106.607 36.5804L93.649 50.157C93.6393 50.1675 93.6291 50.1777 93.6187 50.1874C93.3471 50.4326 93.1488 50.9219 93.1415 51.4251C93.134 51.9286 93.3134 52.4022 93.5884 52.6401C93.5935 52.645 93.5986 52.65 93.6037 52.6551L102.151 60.6889L102.159 60.6962C102.429 60.961 102.714 61.0971 102.977 61.1214H102.977Z" fill="#FFB44F"/>
</g>
<path d="M112.779 45.4112L114.019 59.3304C114.019 59.3304 117.39 58.6466 117.096 60.5927C116.803 62.5385 112.497 61.2943 112.497 61.2943L111.943 45.3215L112.779 45.4112Z" fill="#FF7D23"/>
<path d="M117.491 52.3332C117.815 51.6414 117.258 50.6951 116.247 50.2196C115.236 49.7442 114.154 49.9195 113.83 50.6114C113.506 51.3032 114.063 52.2495 115.074 52.7249C116.085 53.2004 117.167 53.025 117.491 52.3332Z" fill="#FF7D23"/>
<path d="M118.963 56.098C119.287 55.4061 118.73 54.4599 117.719 53.9844C116.709 53.5089 115.626 53.6843 115.302 54.3761C114.978 55.068 115.535 56.0142 116.546 56.4897C117.557 56.9652 118.639 56.7898 118.963 56.098Z" fill="#FF7D23"/>
<g opacity="0.686" filter="url(#filter12_f_109_85)">
<path d="M116.821 52.0354C117.057 51.5316 116.651 50.8425 115.915 50.4962C115.179 50.1499 114.391 50.2776 114.155 50.7815C113.919 51.2853 114.324 51.9745 115.061 52.3207C115.797 52.667 116.585 52.5393 116.821 52.0354Z" fill="#FFB44F"/>
</g>
<g opacity="0.686" filter="url(#filter13_f_109_85)">
<path d="M118.271 55.7692C118.498 55.2833 118.107 54.6186 117.397 54.2846C116.687 53.9506 115.927 54.0738 115.699 54.5598C115.472 55.0457 115.863 55.7104 116.573 56.0443C117.283 56.3783 118.043 56.2551 118.271 55.7692Z" fill="#FFB44F"/>
</g>
<path d="M116.65 30.9806L129.914 17.6086L122.684 9.77048L116.494 16.3205L120.743 20.6945L123.664 17.6404L120.855 13.9349L121.175 13.6165L124.455 16.7711C124.928 17.2444 125.082 17.7617 124.564 18.3714L121.504 21.5474C121.029 21.9274 120.562 22.0114 120.107 21.6969C120.107 21.6969 117.553 19.7747 115.249 17.1355C114.647 16.3126 114.796 15.5975 115.403 14.948L121.469 7.96793C122.206 7.32335 123.129 7.46108 123.817 8.13474L132.363 16.1622C133.241 16.9206 133.184 18.682 132.337 19.4465L118.978 33.4439L116.65 30.9806Z" fill="#FF7D23"/>
<g opacity="0.686" filter="url(#filter14_f_109_85)">
<path d="M122.635 7.87631C122.377 7.85201 122.13 7.92734 121.87 8.14967C121.865 8.1538 121.86 8.15307 121.854 8.15696L115.846 15.0897L115.831 15.1048C115.58 15.3726 115.467 15.6017 115.444 15.8109C115.422 16.0165 115.478 16.2476 115.709 16.5702C115.713 16.5758 115.713 16.5799 115.717 16.5855C117.951 19.1354 120.411 20.9945 120.445 21.02C120.64 21.1852 121.066 21.2294 121.244 21.0989L124.276 17.8225C124.463 17.4727 124.298 17.1536 124.09 16.9425L121.243 13.7691L124.128 17.079C124.284 17.2856 124.115 17.4493 123.938 17.6379L121.011 20.6839C120.807 20.9002 120.631 21.0134 120.424 20.801L116.126 16.4866C115.928 16.2852 115.925 15.9254 116.118 15.7198L122.309 9.16677C122.517 8.95003 122.909 8.9537 123.112 9.17457L130.341 17.0108C130.53 17.2153 130.527 17.5691 130.334 17.7698L117.444 30.7621L119.005 32.4173L131.963 18.8407C131.973 18.8302 131.983 18.82 131.993 18.8103C132.265 18.5651 132.463 18.0758 132.47 17.5725C132.478 17.0691 132.298 16.5955 132.023 16.3576C132.018 16.3527 132.013 16.3476 132.008 16.3426L123.461 8.30883L123.453 8.30153C123.183 8.03668 122.898 7.90061 122.635 7.87631H122.635Z" fill="#FFB44F"/>
</g>
<path d="M112.738 23.8391L111.498 9.92025C111.498 9.92025 108.128 10.6041 108.421 8.65799C108.714 6.71192 113.021 7.95604 113.021 7.95604L113.574 23.9292L112.738 23.8391Z" fill="#FF7D23"/>
<g opacity="0.686" filter="url(#filter15_f_109_85)">
<path d="M110.106 7.76671C109.862 7.78688 109.638 7.83135 109.455 7.8955C109.088 8.02428 108.901 8.18246 108.848 8.53357C108.79 8.92161 108.883 9.06789 109.068 9.2093C109.253 9.35072 109.588 9.44913 109.955 9.48266C110.688 9.54972 111.501 9.39154 111.501 9.39154C111.7 9.35193 111.916 9.51473 111.932 9.71811L112.852 20.4519L113.128 20.4494L112.736 8.06997C112.437 7.99173 111.732 7.81824 110.879 7.76624C110.614 7.74996 110.351 7.74607 110.106 7.76624V7.76671Z" fill="#FFB44F"/>
</g>
<path d="M108.025 16.9183C107.701 17.6101 108.258 18.5564 109.269 19.0319C110.28 19.5073 111.362 19.332 111.687 18.6401C112.011 17.9483 111.454 17.002 110.443 16.5266C109.432 16.0511 108.349 16.2265 108.025 16.9183Z" fill="#FF7D23"/>
<g opacity="0.567" filter="url(#filter16_f_109_85)">
<path d="M112.256 8.61669L112.981 20.3972L113.163 20.4069L112.553 8.20871C112.553 8.20871 111.334 7.75994 110.09 7.8598C108.846 7.95943 108.846 8.33361 108.846 8.40821C108.846 8.48304 109.567 8.23374 110.438 8.23374C111.309 8.23374 112.256 8.61669 112.256 8.61669Z" fill="white"/>
</g>
<path d="M106.553 13.1534C106.229 13.8453 106.786 14.7915 107.797 15.267C108.808 15.7425 109.89 15.5671 110.214 14.8753C110.538 14.1835 109.981 13.2372 108.97 12.7617C107.959 12.2862 106.877 12.4616 106.553 13.1534Z" fill="#FF7D23"/>
<g opacity="0.567" filter="url(#filter17_f_109_85)">
<path d="M122.512 7.94869C122.462 7.95209 122.286 7.96156 122.235 7.97565C121.83 8.08864 121.576 8.33601 121.576 8.33601C121.576 8.33601 122.393 8.0624 122.821 8.28837C123.249 8.51434 131.788 16.6528 131.991 16.924C132.459 17.5659 132.549 18.2021 132.549 18.2021C132.549 18.2021 132.784 17.3298 132.446 16.8555C132.108 16.3809 123.156 8.13093 123.156 8.13093C123.156 8.13093 122.857 7.92488 122.512 7.94869V7.94869ZM121.216 13.9171C121.216 13.9171 124.052 17.0931 124.277 17.5224C124.503 17.9518 124.161 18.3296 124.161 18.3296C124.161 18.3296 124.532 17.9936 124.622 17.8062C124.736 17.571 124.526 17.2644 124.414 17.1517C124.301 17.0387 121.216 13.9168 121.216 13.9168V13.9171ZM116.321 15.929C116.321 15.929 116.041 16.1362 116.011 16.5065C115.981 16.8771 120.041 21.0129 120.38 21.1256C120.795 21.2389 120.98 20.8457 120.98 20.8457C120.98 20.8457 120.755 20.921 120.642 20.921C120.529 20.921 116.516 16.8025 116.314 16.5085C116.111 16.215 116.321 15.9292 116.321 15.9292L116.321 15.929ZM130.188 17.782L123.201 24.9424L123.512 25.5499C123.512 25.5499 129.464 18.9772 129.915 18.412C130.366 17.8473 130.188 17.782 130.188 17.782V17.782Z" fill="white"/>
</g>
<g opacity="0.686" filter="url(#filter18_f_109_85)">
<path d="M108.349 17.0274C108.113 17.5313 108.519 18.2204 109.255 18.5667C109.991 18.913 110.78 18.7853 111.016 18.2814C111.252 17.7776 110.846 17.0884 110.11 16.7422C109.373 16.3959 108.585 16.5236 108.349 17.0274Z" fill="#FFB44F"/>
</g>
<g opacity="0.567" filter="url(#filter19_f_109_85)">
<path d="M108.348 17.0836C108.348 17.0836 108.771 16.4968 109.518 16.5352C110.488 16.585 111.383 17.8814 111.383 17.8814C111.383 17.8814 110.164 17.0586 109.567 16.984C108.97 16.9092 108.348 17.0836 108.348 17.0836V17.0836Z" fill="white"/>
</g>
<g opacity="0.686" filter="url(#filter20_f_109_85)">
<path d="M106.898 13.2597C106.671 13.7456 107.062 14.4103 107.772 14.7443C108.482 15.0783 109.242 14.9551 109.47 14.4691C109.697 13.9832 109.306 13.3185 108.596 12.9846C107.886 12.6506 107.126 12.7738 106.898 13.2597Z" fill="#FFB44F"/>
</g>
<g opacity="0.567" filter="url(#filter21_f_109_85)">
<path d="M106.781 13.2695C106.781 13.2695 107.203 12.6825 107.95 12.7209C108.921 12.7709 109.816 14.067 109.816 14.067C109.816 14.067 108.597 13.2445 108 13.1697C107.403 13.0948 106.781 13.2693 106.781 13.2693V13.2695Z" fill="white"/>
</g>
<g opacity="0.567" filter="url(#filter22_f_109_85)">
<path d="M100.99 42.1714L93.0936 50.3601C93.0936 50.3601 92.9163 50.676 92.8967 51.0706C92.8771 51.4652 92.9755 51.8204 92.9755 51.8204C92.9755 51.8204 93.1724 50.7943 93.5267 50.3997C93.8812 50.0051 101.265 42.5463 101.265 42.5463L100.99 42.1714Z" fill="white"/>
</g>
<g opacity="0.567" filter="url(#filter23_f_109_85)">
<path d="M122.331 44.9785L129.714 52.3768C129.714 52.3768 137.827 45.1141 137.962 44.8701C138.097 44.6262 129.822 53.0271 129.822 53.0271L122.006 45.1411L122.331 44.9785Z" fill="white"/>
</g>
<g opacity="0.567" filter="url(#filter24_f_109_85)">
<path d="M132.528 29.5122C132.528 29.5122 132.986 28.6219 133.713 28.6083C134.44 28.5952 134.561 29.5797 134.561 29.5797C134.561 29.5797 134.118 28.9919 133.632 28.9861C133.145 28.9803 132.528 29.5122 132.528 29.5122V29.5122Z" fill="white"/>
</g>
<g opacity="0.567" filter="url(#filter25_f_109_85)">
<path d="M128.732 30.9958C128.732 30.9958 129.19 30.1055 129.917 30.0922C130.644 30.0788 130.765 31.0634 130.765 31.0634C130.765 31.0634 130.227 30.4428 129.836 30.4698C129.446 30.4968 128.732 30.9958 128.732 30.9958Z" fill="white"/>
</g>
<g opacity="0.567" filter="url(#filter26_f_109_85)">
<path d="M125.765 42.106L130.498 37.3095C130.914 36.928 131.364 36.8899 131.904 37.2281L139.233 43.6778C139.233 43.6778 132.908 38.4149 131.629 37.4492C131.51 37.3593 131.18 37.3416 130.95 37.457C130.718 37.5727 125.765 42.1058 125.765 42.1058V42.106Z" fill="white"/>
</g>
<g opacity="0.567" filter="url(#filter27_f_109_85)">
<path d="M126.441 42.8376L129.687 45.7915L132.851 43.4066C132.851 43.4066 129.822 46.198 129.687 46.1708C129.551 46.1438 126.441 42.8376 126.441 42.8376V42.8376Z" fill="white"/>
</g>
<g opacity="0.686" filter="url(#filter28_f_109_85)">
<path d="M115.419 61.2984C115.663 61.2795 115.887 61.2361 116.071 61.1726C116.438 61.0456 116.626 60.8886 116.68 60.5377C116.74 60.15 116.648 60.003 116.464 59.8609C116.28 59.7184 115.945 59.6186 115.579 59.5832C114.846 59.5124 114.032 59.6668 114.032 59.6668C113.833 59.7055 113.618 59.5414 113.602 59.3382L112.734 48.6001L112.458 48.6012L112.791 60.9824C113.089 61.0618 113.793 61.239 114.646 61.2952C114.911 61.3127 115.174 61.3179 115.419 61.2989L115.419 61.2984Z" fill="#FFB44F"/>
</g>
<g opacity="0.567" filter="url(#filter29_f_109_85)">
<path d="M114.045 50.9323C114.045 50.9323 114.222 50.2024 115.148 50.2024C116.073 50.2024 116.802 51.1299 116.802 51.1299C116.802 51.1299 115.423 50.5377 114.931 50.5377C114.439 50.5377 114.045 50.9323 114.045 50.9323V50.9323Z" fill="white"/>
</g>
<g opacity="0.567" filter="url(#filter30_f_109_85)">
<path d="M115.66 54.7211C115.66 54.7211 115.837 53.991 116.762 53.991C117.688 53.991 118.417 54.9184 118.417 54.9184C118.417 54.9184 117.038 54.3263 116.546 54.3263C116.054 54.3263 115.66 54.7211 115.66 54.7211H115.66Z" fill="white"/>
</g>
<g opacity="0.567" filter="url(#filter31_f_109_85)">
<path d="M112.962 48.9197L113.828 59.6739C113.828 59.6739 114.774 59.5159 115.246 59.5159C115.719 59.5159 116.684 59.7132 116.782 60.2065C116.881 60.6997 116.723 60.7787 116.723 60.7787C116.723 60.7787 116.625 59.7922 115.049 59.8515C113.474 59.9105 113.553 59.9105 113.553 59.9105L112.765 48.7224L112.962 48.9197Z" fill="white"/>
</g>
<g opacity="0.567" filter="url(#filter32_f_109_85)">
<path d="M100.891 51.1299L104.298 47.7753C104.298 47.7753 104.534 47.5979 104.77 47.5979C105.007 47.5979 105.283 47.6963 105.283 47.6963L109.89 52.0768C109.89 52.0768 110.186 52.4716 110.245 52.6492C110.304 52.8266 105.283 48.0319 105.086 47.9529C104.889 47.8739 104.593 47.8739 104.377 48.0319C104.16 48.1898 100.891 51.1299 100.891 51.1299Z" fill="white"/>
</g>
<g opacity="0.567" filter="url(#filter33_f_109_85)">
<path d="M101.659 51.7021L104.475 55.2934C104.475 55.2934 101.6 52.0177 101.581 51.9388C101.561 51.8598 101.659 51.7021 101.659 51.7021V51.7021Z" fill="white"/>
</g>
<g opacity="0.567" filter="url(#filter34_f_109_85)">
<path d="M109.555 53.0043C109.555 53.0043 109.359 53.0043 109.26 53.0635C109.162 53.1228 102.939 59.7723 102.939 59.7723L95.4171 51.6822V51.4059C95.4171 51.4059 95.1217 51.6625 95.299 51.8797C95.4762 52.0967 102.978 60.1868 102.978 60.1868L109.555 53.0043Z" fill="white"/>
</g>
<g opacity="0.567" filter="url(#filter35_f_109_85)">
<path d="M92.5452 37.4048L91.5137 38.0875C91.5137 38.0875 91.9189 37.3494 92.582 37.3494C93.2452 37.3494 93.4848 38.1984 93.4848 38.1984C93.4848 38.1984 92.9319 37.5707 92.4714 37.6446C92.011 37.7184 91.5137 38.0876 92.5452 37.4048V37.4048Z" fill="white"/>
</g>
<g opacity="0.567" filter="url(#filter36_f_109_85)">
<path d="M96.3952 36.0018L95.3637 36.6846C95.3637 36.6846 95.7686 35.9464 96.432 35.9464C97.0952 35.9464 97.3346 36.7956 97.3346 36.7956C97.3346 36.7956 96.782 36.168 96.3215 36.2416C95.8608 36.3155 95.3637 36.6848 96.3952 36.0018V36.0018Z" fill="white"/>
</g>
<g opacity="0.567" filter="url(#filter37_f_109_85)">
<path d="M92.1005 26.0779L95.2529 22.8977C95.2529 22.8977 95.5473 22.687 95.7784 22.687C96.0094 22.687 96.388 22.9188 96.388 22.9188C96.388 22.9188 99.6662 26.0358 99.7293 26.2674C99.7923 26.4992 99.7923 26.7939 99.7923 26.7939C99.7923 26.7939 99.6454 26.2674 98.9519 25.6568C98.2584 25.0459 96.1355 23.0663 96.1355 23.0663C96.1355 23.0663 95.9255 22.94 95.7153 22.982C95.5051 23.0241 92.1005 26.0779 92.1005 26.0779V26.0779Z" fill="white"/>
</g>
<g opacity="0.567" filter="url(#filter38_f_109_85)">
<path d="M87.7921 24.4982C87.7921 24.4982 87.6449 24.6878 87.729 24.7509C87.8129 24.8141 94.4122 31.1535 94.4122 31.1535L94.8116 30.9217C94.8116 30.9217 94.6224 31.2799 94.4752 31.3008C94.3281 31.3219 94.3072 31.3008 92.983 30.1425C91.6591 28.9842 87.4136 24.9616 87.4977 24.7721C87.5818 24.5826 87.7921 24.4982 87.7921 24.4982V24.4982Z" fill="white"/>
</g>
<path d="M43.064 19.8153C42.8088 19.8184 42.5567 19.8719 42.3222 19.9727C42.0876 20.0735 41.8752 20.2197 41.6971 20.403C41.5191 20.5862 41.3789 20.8028 41.2845 21.0404C41.1901 21.2781 41.1434 21.532 41.1472 21.7877V47.4616C41.1472 47.9779 41.3518 48.473 41.7161 48.8381C42.0804 49.2031 42.5745 49.4082 43.0898 49.4082C43.605 49.4082 44.0991 49.2031 44.4634 48.8381C44.8277 48.473 45.0323 47.9779 45.0323 47.4616V21.7875C45.0361 21.5274 44.9878 21.2693 44.8902 21.0283C44.7926 20.7873 44.6477 20.5684 44.4642 20.3845C44.2807 20.2006 44.0622 20.0555 43.8217 19.9577C43.5812 19.8599 43.3235 19.8115 43.064 19.8153ZM29.3211 19.9097C29.0659 19.9128 28.8138 19.9662 28.5793 20.0671C28.3447 20.1679 28.1324 20.3141 27.9543 20.4973C27.7762 20.6805 27.636 20.8971 27.5416 21.1347C27.4472 21.3723 27.4005 21.6262 27.4042 21.8819V41.9219C27.4042 46.0306 30.7661 49.3994 34.8662 49.3994H38.3234C38.5852 49.4111 38.8466 49.3695 39.0919 49.2772C39.3372 49.1848 39.5613 49.0437 39.7507 48.8622C39.94 48.6807 40.0907 48.4626 40.1937 48.2211C40.2967 47.9797 40.3497 47.7198 40.3497 47.4572C40.3497 47.1946 40.2967 46.9348 40.1937 46.6933C40.0907 46.4519 39.94 46.2338 39.7507 46.0523C39.5613 45.8708 39.3372 45.7296 39.0919 45.6372C38.8466 45.5449 38.5852 45.5033 38.3234 45.515H34.8662C32.8483 45.515 31.2806 43.944 31.2806 41.9219V21.8821C31.2844 21.6228 31.2364 21.3654 31.1393 21.1249C31.0423 20.8845 30.8982 20.666 30.7156 20.4822C30.533 20.2984 30.3156 20.153 30.0761 20.0547C29.8366 19.9564 29.5799 19.9071 29.3211 19.9097V19.9097ZM80.417 19.9097C79.9031 19.918 79.4134 20.1304 79.0556 20.5001C78.6977 20.8699 78.5009 21.3668 78.5084 21.8819V41.9219C78.5084 46.0306 81.862 49.3994 85.9622 49.3994H89.4193C89.6811 49.4111 89.9426 49.3695 90.1879 49.2772C90.4332 49.1848 90.6572 49.0437 90.8466 48.8622C91.036 48.6807 91.1867 48.4626 91.2896 48.2211C91.3926 47.9797 91.4457 47.7198 91.4457 47.4572C91.4457 47.1946 91.3926 46.9348 91.2896 46.6933C91.1867 46.4519 91.036 46.2338 90.8466 46.0523C90.6572 45.8708 90.4332 45.7296 90.1879 45.6372C89.9426 45.5449 89.6811 45.5033 89.4193 45.515H85.9622C83.9443 45.515 82.3851 43.944 82.3851 41.9219V21.8821C82.3889 21.6221 82.3406 21.3639 82.243 21.1229C82.1454 20.8819 82.0006 20.663 81.8171 20.4791C81.6336 20.2952 81.4151 20.15 81.1746 20.0522C80.9341 19.9544 80.6765 19.906 80.417 19.9097V19.9097ZM21.123 19.944C17.0231 19.944 13.661 23.3044 13.661 27.413V32.0606C13.2195 32.1473 12.8218 32.3849 12.5359 32.7329C12.25 33.081 12.0936 33.5178 12.0936 33.9686C12.0936 34.4194 12.25 34.8562 12.5359 35.2042C12.8218 35.5522 13.2195 35.7899 13.661 35.8765V47.4616C13.6498 47.7237 13.6916 47.9853 13.784 48.2308C13.8763 48.4762 14.0173 48.7004 14.1984 48.8898C14.3795 49.0792 14.597 49.23 14.8377 49.333C15.0785 49.4359 15.3376 49.489 15.5993 49.489C15.8611 49.489 16.1202 49.4359 16.3609 49.333C16.6017 49.23 16.8192 49.0792 17.0003 48.8898C17.1814 48.7004 17.3223 48.4762 17.4147 48.2308C17.507 47.9853 17.5489 47.7237 17.5377 47.4616V35.9193H23.6132C24.1244 35.9132 24.6126 35.7055 24.9719 35.3411C25.3313 34.9767 25.5328 34.4851 25.5328 33.9728C25.5328 33.4606 25.3313 32.9689 24.9719 32.6046C24.6126 32.2402 24.1244 32.0324 23.6132 32.0263H17.5377V27.4128C17.5377 25.391 19.1054 23.8285 21.123 23.8285H24.5717C24.8334 23.8402 25.0949 23.7986 25.3402 23.7062C25.5855 23.6139 25.8096 23.4727 25.9989 23.2912C26.1883 23.1097 26.339 22.8917 26.442 22.6502C26.5449 22.4087 26.598 22.1488 26.598 21.8863C26.598 21.6237 26.5449 21.3638 26.442 21.1224C26.339 20.8809 26.1883 20.6628 25.9989 20.4813C25.8096 20.2998 25.5855 20.1586 25.3402 20.0663C25.0949 19.9739 24.8334 19.9324 24.5717 19.944H21.123ZM52.2805 20.1841L52.1863 20.1924C52.1863 20.1924 50.6093 20.3565 49.0372 21.3331C47.4651 22.3097 45.7939 24.3666 45.7939 27.3958C45.7939 30.1895 46.7287 32.2994 48.0445 33.7241C49.3603 35.1488 50.8842 35.9476 52.0921 36.751C53.464 37.664 54.7464 38.4156 55.5577 39.1864C56.3694 39.9575 56.7558 40.5647 56.7558 41.7932C56.7558 44.337 54.8422 45.7035 53.4697 45.7035C51.0745 45.7035 48.7206 45.5493 48.7206 45.5493C48.2422 45.5194 47.7716 45.681 47.4119 45.9985C47.0523 46.3161 46.8332 46.7636 46.8026 47.243C46.772 47.7223 46.9324 48.1942 47.2487 48.5551C47.565 48.916 48.0112 49.1364 48.4895 49.1678C48.4895 49.1678 50.9239 49.3223 53.4697 49.3223C57.0386 49.3223 60.3671 46.1722 60.3671 41.7932C60.3671 39.5607 59.3224 37.7647 58.048 36.554C56.7738 35.3433 55.3211 34.5489 54.0946 33.7326C52.7038 32.8073 51.4781 32.1087 50.6972 31.2629C49.9165 30.4175 49.4052 29.4703 49.4052 27.3958C49.4052 25.5562 50.1243 24.9215 50.9455 24.4116C51.7325 23.9226 52.4817 23.8118 52.5455 23.8027H57.3294C57.573 23.8131 57.8162 23.7741 58.0444 23.6878C58.2725 23.6016 58.4809 23.47 58.6569 23.3009C58.833 23.1319 58.973 22.9289 59.0688 22.7042C59.1645 22.4794 59.2138 22.2376 59.2138 21.9933C59.2138 21.749 59.1645 21.5071 59.0688 21.2824C58.973 21.0577 58.833 20.8547 58.6569 20.6856C58.4809 20.5166 58.2725 20.385 58.0444 20.2988C57.8162 20.2125 57.573 20.1734 57.3294 20.1839H52.2805V20.1841ZM66.6995 27.4729C63.6665 27.4729 61.1713 29.9817 61.1713 33.0211V43.8515C61.1713 46.8908 63.6665 49.3994 66.6995 49.3994H71.8082C74.8412 49.3994 77.3449 46.8908 77.3449 43.8515V33.0211C77.3449 29.9817 74.8412 27.4729 71.8082 27.4729H66.6995ZM66.6995 31.3573H71.8082C72.7589 31.3573 73.4597 32.068 73.4597 33.0211V43.8515C73.4597 44.8043 72.7589 45.515 71.8085 45.515H66.6995C65.7488 45.515 65.048 44.8043 65.048 43.8515V33.0211C65.048 32.0683 65.7488 31.3573 66.6993 31.3573H66.6995Z" fill="#FF8E2A"/>
<path d="M112.866 48.0352C120.263 48.0352 126.26 42.0262 126.26 34.6137C126.26 27.2011 120.263 21.1921 112.866 21.1921C105.469 21.1921 99.4722 27.2011 99.4722 34.6137C99.4722 42.0262 105.469 48.0352 112.866 48.0352Z" fill="white" stroke="#0055D4" stroke-width="5.79709"/>
<path d="M112.866 48.7988C120.684 48.7988 127.021 42.448 127.021 34.6139C127.021 26.7798 120.684 20.429 112.866 20.429C105.048 20.429 98.7105 26.7798 98.7105 34.6139C98.7105 42.448 105.048 48.7988 112.866 48.7988Z" fill="#0055D4"/>
<path opacity="0.482" d="M112.866 48.7988C120.684 48.7988 127.021 42.448 127.021 34.6139C127.021 26.7798 120.684 20.429 112.866 20.429C105.048 20.429 98.7105 26.7798 98.7105 34.6139C98.7105 42.448 105.048 48.7988 112.866 48.7988Z" fill="url(#paint0_radial_109_85)"/>
<g filter="url(#filter39_f_109_85)">
<path d="M112.865 43.319C118.808 43.319 123.626 38.4916 123.626 32.5366C123.626 26.5816 118.808 21.7541 112.865 21.7541C106.923 21.7541 102.105 26.5816 102.105 32.5366C102.105 38.4916 106.923 43.319 112.865 43.319Z" fill="url(#paint1_radial_109_85)"/>
</g>
<g filter="url(#filter40_f_109_85)">
<path d="M106.057 24.5041C105.865 24.512 105.695 24.5599 105.567 24.6658C105.495 25.357 105.739 26.2442 106.266 26.7299C106.22 26.6707 106.165 26.5639 106.09 26.3873C105.856 25.9891 105.435 24.222 106.246 25.0748C106.722 26.0758 106.877 27.2978 107.615 28.1853C108.178 29.1113 109.247 29.171 110.149 29.4026C110.931 29.7831 111.183 30.9097 112.026 31.134C112.626 31.9158 111.873 32.8948 111.546 33.6498C110.889 34.8154 112.237 35.523 112.663 36.4368C113.526 37.6302 114.344 39.2106 113.695 40.7127C113.311 41.799 113.217 42.9994 112.944 44.1323C112.822 44.9356 112.649 46.6241 113.514 46.7812C113.687 45.9122 113.619 44.9771 114.317 44.3225C115.004 43.0124 116.343 42.1953 117.359 41.269C117.828 40.7108 118.736 39.444 119.636 38.8244C120.035 38.1478 119.916 36.9982 120.648 36.3275C121.21 35.7324 121.489 34.3508 120.411 34.1872C118.974 33.6134 117.792 32.5239 116.836 31.2909C115.801 30.7322 115.151 30.5796 114.048 30.2238C113.981 30.202 113.888 30.8048 113.687 30.8026C113.412 30.8002 113.751 30.0313 113.153 30.0544C113.052 30.3848 112.481 30.9073 112.088 31.0199C111.936 30.772 111.398 30.2513 111.437 29.8308C111.419 28.9833 110.339 28.9625 110.752 28.1567C110.505 27.4466 109.513 29.199 109.108 27.9996C108.868 26.9575 108.827 25.1922 107.867 24.9938C107.405 24.8105 106.632 24.4806 106.056 24.5041H106.057ZM111.993 27.4332C112.088 27.4629 112.513 27.3332 112.98 27.3407C113.42 27.3479 114.154 27.7109 114.288 27.5951C114.08 26.9056 112.616 27.0323 112.644 27.0356C112.423 27.2221 111.835 27.3735 111.993 27.4332ZM116.812 28.744C116.776 28.8087 116.59 28.825 116.59 28.6922C116.663 28.5641 116.805 28.674 116.812 28.744H116.812ZM115.928 28.4884C115.097 28.4625 115.643 28.0384 115.202 28.048C114.893 28.0544 114.98 28.3801 114.444 28.33C114.937 28.5626 114.97 28.5054 115.314 28.6894C115.801 28.6604 116.1 28.6671 115.928 28.4881V28.4884Z" fill="#0055D4"/>
<path d="M106.057 24.5041C105.865 24.512 105.695 24.5599 105.567 24.6658C105.495 25.357 105.739 26.2442 106.266 26.7299C106.22 26.6707 106.165 26.5639 106.09 26.3873C105.856 25.9891 105.435 24.222 106.246 25.0748C106.722 26.0758 106.877 27.2978 107.615 28.1853C108.178 29.1113 109.247 29.171 110.149 29.4026C110.931 29.7831 111.183 30.9097 112.026 31.134C112.626 31.9158 111.873 32.8948 111.546 33.6498C110.889 34.8154 112.237 35.523 112.663 36.4368C113.526 37.6302 114.344 39.2106 113.695 40.7127C113.311 41.799 113.217 42.9994 112.944 44.1323C112.822 44.9356 112.649 46.6241 113.514 46.7812C113.687 45.9122 113.619 44.9771 114.317 44.3225C115.004 43.0124 116.343 42.1953 117.359 41.269C117.828 40.7108 118.736 39.444 119.636 38.8244C120.035 38.1478 119.916 36.9982 120.648 36.3275C121.21 35.7324 121.489 34.3508 120.411 34.1872C118.974 33.6134 117.792 32.5239 116.836 31.2909C115.801 30.7322 115.151 30.5796 114.048 30.2238C113.981 30.202 113.888 30.8048 113.687 30.8026C113.412 30.8002 113.751 30.0313 113.153 30.0544C113.052 30.3848 112.481 30.9073 112.088 31.0199C111.936 30.772 111.398 30.2513 111.437 29.8308C111.419 28.9833 110.339 28.9625 110.752 28.1567C110.505 27.4466 109.513 29.199 109.108 27.9996C108.868 26.9575 108.827 25.1922 107.867 24.9938C107.405 24.8105 106.632 24.4806 106.056 24.5041H106.057ZM111.993 27.4332C112.088 27.4629 112.513 27.3332 112.98 27.3407C113.42 27.3479 114.154 27.7109 114.288 27.5951C114.08 26.9056 112.616 27.0323 112.644 27.0356C112.423 27.2221 111.835 27.3735 111.993 27.4332ZM116.812 28.744C116.776 28.8087 116.59 28.825 116.59 28.6922C116.663 28.5641 116.805 28.674 116.812 28.744H116.812ZM115.928 28.4884C115.097 28.4625 115.643 28.0384 115.202 28.048C114.893 28.0544 114.98 28.3801 114.444 28.33C114.937 28.5626 114.97 28.5054 115.314 28.6894C115.801 28.6604 116.1 28.6671 115.928 28.4881V28.4884Z" stroke="#FF7D23" stroke-width="0.965887"/>
</g>
<path d="M106.057 24.5046C105.866 24.5128 105.696 24.5606 105.568 24.6665C105.496 25.358 105.74 26.2452 106.267 26.7306C106.221 26.6716 106.166 26.5646 106.091 26.3881C105.857 25.9897 105.436 24.2231 106.247 25.0754C106.723 26.0767 106.878 27.2986 107.616 28.186C108.179 29.1121 109.249 29.1719 110.15 29.4035C110.932 29.7839 111.184 30.9103 112.027 31.1348C112.627 31.9168 111.874 32.8956 111.547 33.6505C110.89 34.8162 112.238 35.5236 112.664 36.4376C113.527 37.6313 114.345 39.2116 113.696 40.7134C113.312 41.8001 113.218 43.0003 112.945 44.1328C112.823 44.9365 112.65 46.6246 113.515 46.7819C113.688 45.9131 113.62 44.9779 114.318 44.3232C115.005 43.0132 116.344 42.196 117.36 41.2699C117.829 40.7115 118.737 39.4446 119.637 38.8249C120.036 38.1485 119.916 36.9991 120.649 36.3281C121.211 35.7332 121.49 34.3519 120.412 34.1881C118.975 33.614 117.793 32.5246 116.837 31.2917C115.802 30.733 115.152 30.5805 114.049 30.2243C113.982 30.2023 113.889 30.8055 113.688 30.8033C113.413 30.8005 113.752 30.0322 113.154 30.055C113.054 30.3854 112.482 30.9078 112.089 31.0206C111.937 30.7726 111.399 30.2523 111.438 29.8316C111.42 28.9843 110.34 28.9634 110.753 28.1575C110.506 27.4473 109.514 29.2002 109.109 28.0005C108.869 26.9583 108.828 25.1931 107.868 24.9947C107.406 24.8111 106.633 24.4813 106.057 24.5049V24.5046ZM111.994 27.4339C112.089 27.4638 112.513 27.334 112.981 27.3417C113.421 27.3488 114.155 27.7118 114.289 27.596C114.081 26.9065 112.618 27.0333 112.645 27.0363C112.424 27.2229 111.836 27.3743 111.994 27.4341V27.4339ZM116.813 28.7447C116.777 28.8095 116.591 28.8257 116.591 28.6931C116.664 28.5647 116.806 28.675 116.813 28.7447ZM115.929 28.489C115.098 28.4632 115.644 28.0389 115.203 28.0488C114.893 28.0554 114.981 28.3808 114.445 28.3306C114.938 28.5633 114.971 28.5062 115.315 28.6901C115.802 28.661 116.102 28.6681 115.929 28.489V28.489Z" fill="#CCFF00" stroke="#D4FF2A" stroke-width="0.966111"/>
<path opacity="0.88" d="M117.2 22.3514C118.149 22.8535 119.419 23.6369 119.98 24.144C120.626 24.4851 121.68 25.3652 122.602 26.0588C122.602 26.0588 121.327 24.6171 120.179 23.7972C119.26 23.1617 118.223 22.7161 117.2 22.3514V22.3514ZM121.914 24.9017L123.153 26.421L124.257 27.5738L123.343 26.2569L121.914 24.9017ZM119.455 24.2225C117.909 23.2503 115.138 21.9414 115.138 21.9414C115.138 21.9414 116.493 23.4067 117.002 25.1994C117.512 26.9918 116.849 28.3567 116.849 28.3567C116.849 28.3567 118.87 28.7282 121.33 30.3445C123.823 31.9821 125.222 35.368 125.222 35.368C125.222 35.368 125.365 33.4675 124.601 30.7575C123.838 28.0474 122.786 26.6194 122.786 26.6194C122.786 26.6194 121.001 25.1945 119.455 24.2225H119.455ZM123.385 27.0966C123.941 28.0966 124.633 29.158 124.855 30.0185C125.336 30.8222 125.734 32.1833 126.136 33.7326C126.136 33.7326 126.083 30.8703 125.425 29.7345C124.752 28.6377 123.385 27.0966 123.385 27.0966H123.385Z" fill="url(#paint2_linear_109_85)"/>
</g>
<defs>
<filter id="filter0_f_109_85" x="84.5963" y="13.4076" width="27.4236" height="19.9954" filterUnits="userSpaceOnUse" color-interpolation-filters="sRGB">
<feFlood flood-opacity="0" result="BackgroundImageFix"/>
<feBlend mode="normal" in="SourceGraphic" in2="BackgroundImageFix" result="shape"/>
<feGaussianBlur stdDeviation="0.732292" result="effect1_foregroundBlur_109_85"/>
</filter>
<filter id="filter1_f_109_85" x="85.064" y="13.4483" width="21.5337" height="11.8648" filterUnits="userSpaceOnUse" color-interpolation-filters="sRGB">
<feFlood flood-opacity="0" result="BackgroundImageFix"/>
<feBlend mode="normal" in="SourceGraphic" in2="BackgroundImageFix" result="shape"/>
<feGaussianBlur stdDeviation="0.607392" result="effect1_foregroundBlur_109_85"/>
</filter>
<filter id="filter2_f_109_85" x="84.6291" y="32.6633" width="15.5998" height="7.24698" filterUnits="userSpaceOnUse" color-interpolation-filters="sRGB">
<feFlood flood-opacity="0" result="BackgroundImageFix"/>
<feBlend mode="normal" in="SourceGraphic" in2="BackgroundImageFix" result="shape"/>
<feGaussianBlur stdDeviation="0.732292" result="effect1_foregroundBlur_109_85"/>
</filter>
<filter id="filter3_f_109_85" x="84.904" y="33.0011" width="15.3721" height="5.23334" filterUnits="userSpaceOnUse" color-interpolation-filters="sRGB">
<feFlood flood-opacity="0" result="BackgroundImageFix"/>
<feBlend mode="normal" in="SourceGraphic" in2="BackgroundImageFix" result="shape"/>
<feGaussianBlur stdDeviation="0.607392" result="effect1_foregroundBlur_109_85"/>
</filter>
<filter id="filter4_f_109_85" x="93.6583" y="34.5784" width="4.74049" height="5.33744" filterUnits="userSpaceOnUse" color-interpolation-filters="sRGB">
<feFlood flood-opacity="0" result="BackgroundImageFix"/>
<feBlend mode="normal" in="SourceGraphic" in2="BackgroundImageFix" result="shape"/>
<feGaussianBlur stdDeviation="0.632739" result="effect1_foregroundBlur_109_85"/>
</filter>
<filter id="filter5_f_109_85" x="89.9021" y="36.0656" width="4.57199" height="5.14774" filterUnits="userSpaceOnUse" color-interpolation-filters="sRGB">
<feFlood flood-opacity="0" result="BackgroundImageFix"/>
<feBlend mode="normal" in="SourceGraphic" in2="BackgroundImageFix" result="shape"/>
<feGaussianBlur stdDeviation="0.610253" result="effect1_foregroundBlur_109_85"/>
</filter>
<filter id="filter6_f_109_85" x="113.497" y="35.8477" width="27.4236" height="19.9954" filterUnits="userSpaceOnUse" color-interpolation-filters="sRGB">
<feFlood flood-opacity="0" result="BackgroundImageFix"/>
<feBlend mode="normal" in="SourceGraphic" in2="BackgroundImageFix" result="shape"/>
<feGaussianBlur stdDeviation="0.732292" result="effect1_foregroundBlur_109_85"/>
</filter>
<filter id="filter7_f_109_85" x="125.281" y="29.2511" width="15.5998" height="7.24698" filterUnits="userSpaceOnUse" color-interpolation-filters="sRGB">
<feFlood flood-opacity="0" result="BackgroundImageFix"/>
<feBlend mode="normal" in="SourceGraphic" in2="BackgroundImageFix" result="shape"/>
<feGaussianBlur stdDeviation="0.732292" result="effect1_foregroundBlur_109_85"/>
</filter>
<filter id="filter8_f_109_85" x="125.571" y="29.3967" width="14.9754" height="6.65329" filterUnits="userSpaceOnUse" color-interpolation-filters="sRGB">
<feFlood flood-opacity="0" result="BackgroundImageFix"/>
<feBlend mode="normal" in="SourceGraphic" in2="BackgroundImageFix" result="shape"/>
<feGaussianBlur stdDeviation="0.607392" result="effect1_foregroundBlur_109_85"/>
</filter>
<filter id="filter9_f_109_85" x="127.24" y="28.887" width="4.74049" height="5.33744" filterUnits="userSpaceOnUse" color-interpolation-filters="sRGB">
<feFlood flood-opacity="0" result="BackgroundImageFix"/>
<feBlend mode="normal" in="SourceGraphic" in2="BackgroundImageFix" result="shape"/>
<feGaussianBlur stdDeviation="0.632739" result="effect1_foregroundBlur_109_85"/>
</filter>
<filter id="filter10_f_109_85" x="131.131" y="27.4545" width="4.57199" height="5.14774" filterUnits="userSpaceOnUse" color-interpolation-filters="sRGB">
<feFlood flood-opacity="0" result="BackgroundImageFix"/>
<feBlend mode="normal" in="SourceGraphic" in2="BackgroundImageFix" result="shape"/>
<feGaussianBlur stdDeviation="0.610253" result="effect1_foregroundBlur_109_85"/>
</filter>
<filter id="filter11_f_109_85" x="91.6767" y="35.1158" width="19.9599" height="27.4745" filterUnits="userSpaceOnUse" color-interpolation-filters="sRGB">
<feFlood flood-opacity="0" result="BackgroundImageFix"/>
<feBlend mode="normal" in="SourceGraphic" in2="BackgroundImageFix" result="shape"/>
<feGaussianBlur stdDeviation="0.732292" result="effect1_foregroundBlur_109_85"/>
</filter>
<filter id="filter12_f_109_85" x="112.822" y="49.0359" width="5.33162" height="4.7451" filterUnits="userSpaceOnUse" color-interpolation-filters="sRGB">
<feFlood flood-opacity="0" result="BackgroundImageFix"/>
<feBlend mode="normal" in="SourceGraphic" in2="BackgroundImageFix" result="shape"/>
<feGaussianBlur stdDeviation="0.632739" result="effect1_foregroundBlur_109_85"/>
</filter>
<filter id="filter13_f_109_85" x="114.414" y="52.8762" width="5.14212" height="4.57648" filterUnits="userSpaceOnUse" color-interpolation-filters="sRGB">
<feFlood flood-opacity="0" result="BackgroundImageFix"/>
<feBlend mode="normal" in="SourceGraphic" in2="BackgroundImageFix" result="shape"/>
<feGaussianBlur stdDeviation="0.610253" result="effect1_foregroundBlur_109_85"/>
</filter>
<filter id="filter14_f_109_85" x="113.975" y="6.40736" width="19.9599" height="27.4745" filterUnits="userSpaceOnUse" color-interpolation-filters="sRGB">
<feFlood flood-opacity="0" result="BackgroundImageFix"/>
<feBlend mode="normal" in="SourceGraphic" in2="BackgroundImageFix" result="shape"/>
<feGaussianBlur stdDeviation="0.732292" result="effect1_foregroundBlur_109_85"/>
</filter>
<filter id="filter15_f_109_85" x="107.367" y="6.28795" width="7.22641" height="15.6285" filterUnits="userSpaceOnUse" color-interpolation-filters="sRGB">
<feFlood flood-opacity="0" result="BackgroundImageFix"/>
<feBlend mode="normal" in="SourceGraphic" in2="BackgroundImageFix" result="shape"/>
<feGaussianBlur stdDeviation="0.732292" result="effect1_foregroundBlur_109_85"/>
</filter>
<filter id="filter16_f_109_85" x="107.631" y="6.63052" width="6.74665" height="14.9912" filterUnits="userSpaceOnUse" color-interpolation-filters="sRGB">
<feFlood flood-opacity="0" result="BackgroundImageFix"/>
<feBlend mode="normal" in="SourceGraphic" in2="BackgroundImageFix" result="shape"/>
<feGaussianBlur stdDeviation="0.607392" result="effect1_foregroundBlur_109_85"/>
</filter>
<filter id="filter17_f_109_85" x="114.796" y="6.73199" width="19.0471" height="20.0327" filterUnits="userSpaceOnUse" color-interpolation-filters="sRGB">
<feFlood flood-opacity="0" result="BackgroundImageFix"/>
<feBlend mode="normal" in="SourceGraphic" in2="BackgroundImageFix" result="shape"/>
<feGaussianBlur stdDeviation="0.607392" result="effect1_foregroundBlur_109_85"/>
</filter>
<filter id="filter18_f_109_85" x="107.017" y="15.2819" width="5.33162" height="4.7451" filterUnits="userSpaceOnUse" color-interpolation-filters="sRGB">
<feFlood flood-opacity="0" result="BackgroundImageFix"/>
<feBlend mode="normal" in="SourceGraphic" in2="BackgroundImageFix" result="shape"/>
<feGaussianBlur stdDeviation="0.632739" result="effect1_foregroundBlur_109_85"/>
</filter>
<filter id="filter19_f_109_85" x="107.134" y="15.3186" width="5.46466" height="3.7775" filterUnits="userSpaceOnUse" color-interpolation-filters="sRGB">
<feFlood flood-opacity="0" result="BackgroundImageFix"/>
<feBlend mode="normal" in="SourceGraphic" in2="BackgroundImageFix" result="shape"/>
<feGaussianBlur stdDeviation="0.607392" result="effect1_foregroundBlur_109_85"/>
</filter>
<filter id="filter20_f_109_85" x="105.613" y="11.5762" width="5.14212" height="4.57648" filterUnits="userSpaceOnUse" color-interpolation-filters="sRGB">
<feFlood flood-opacity="0" result="BackgroundImageFix"/>
<feBlend mode="normal" in="SourceGraphic" in2="BackgroundImageFix" result="shape"/>
<feGaussianBlur stdDeviation="0.610253" result="effect1_foregroundBlur_109_85"/>
</filter>
<filter id="filter21_f_109_85" x="105.566" y="11.5043" width="5.46466" height="3.7775" filterUnits="userSpaceOnUse" color-interpolation-filters="sRGB">
<feFlood flood-opacity="0" result="BackgroundImageFix"/>
<feBlend mode="normal" in="SourceGraphic" in2="BackgroundImageFix" result="shape"/>
<feGaussianBlur stdDeviation="0.607392" result="effect1_foregroundBlur_109_85"/>
</filter>
<filter id="filter22_f_109_85" x="91.6793" y="40.9566" width="10.8008" height="12.0786" filterUnits="userSpaceOnUse" color-interpolation-filters="sRGB">
<feFlood flood-opacity="0" result="BackgroundImageFix"/>
<feBlend mode="normal" in="SourceGraphic" in2="BackgroundImageFix" result="shape"/>
<feGaussianBlur stdDeviation="0.607392" result="effect1_foregroundBlur_109_85"/>
</filter>
<filter id="filter23_f_109_85" x="120.791" y="43.6501" width="18.387" height="10.5917" filterUnits="userSpaceOnUse" color-interpolation-filters="sRGB">
<feFlood flood-opacity="0" result="BackgroundImageFix"/>
<feBlend mode="normal" in="SourceGraphic" in2="BackgroundImageFix" result="shape"/>
<feGaussianBlur stdDeviation="0.607392" result="effect1_foregroundBlur_109_85"/>
</filter>
<filter id="filter24_f_109_85" x="131.314" y="27.3934" width="4.46204" height="3.40113" filterUnits="userSpaceOnUse" color-interpolation-filters="sRGB">
<feFlood flood-opacity="0" result="BackgroundImageFix"/>
<feBlend mode="normal" in="SourceGraphic" in2="BackgroundImageFix" result="shape"/>
<feGaussianBlur stdDeviation="0.607392" result="effect1_foregroundBlur_109_85"/>
</filter>
<filter id="filter25_f_109_85" x="127.518" y="28.8773" width="4.46222" height="3.40091" filterUnits="userSpaceOnUse" color-interpolation-filters="sRGB">
<feFlood flood-opacity="0" result="BackgroundImageFix"/>
<feBlend mode="normal" in="SourceGraphic" in2="BackgroundImageFix" result="shape"/>
<feGaussianBlur stdDeviation="0.607392" result="effect1_foregroundBlur_109_85"/>
</filter>
<filter id="filter26_f_109_85" x="124.551" y="35.7823" width="15.8973" height="9.11035" filterUnits="userSpaceOnUse" color-interpolation-filters="sRGB">
<feFlood flood-opacity="0" result="BackgroundImageFix"/>
<feBlend mode="normal" in="SourceGraphic" in2="BackgroundImageFix" result="shape"/>
<feGaussianBlur stdDeviation="0.607392" result="effect1_foregroundBlur_109_85"/>
</filter>
<filter id="filter27_f_109_85" x="125.227" y="41.6228" width="8.83875" height="5.76297" filterUnits="userSpaceOnUse" color-interpolation-filters="sRGB">
<feFlood flood-opacity="0" result="BackgroundImageFix"/>
<feBlend mode="normal" in="SourceGraphic" in2="BackgroundImageFix" result="shape"/>
<feGaussianBlur stdDeviation="0.607392" result="effect1_foregroundBlur_109_85"/>
</filter>
<filter id="filter28_f_109_85" x="110.993" y="47.1355" width="7.16983" height="15.64" filterUnits="userSpaceOnUse" color-interpolation-filters="sRGB">
<feFlood flood-opacity="0" result="BackgroundImageFix"/>
<feBlend mode="normal" in="SourceGraphic" in2="BackgroundImageFix" result="shape"/>
<feGaussianBlur stdDeviation="0.732292" result="effect1_foregroundBlur_109_85"/>
</filter>
<filter id="filter29_f_109_85" x="112.83" y="48.9876" width="5.18628" height="3.35703" filterUnits="userSpaceOnUse" color-interpolation-filters="sRGB">
<feFlood flood-opacity="0" result="BackgroundImageFix"/>
<feBlend mode="normal" in="SourceGraphic" in2="BackgroundImageFix" result="shape"/>
<feGaussianBlur stdDeviation="0.607392" result="effect1_foregroundBlur_109_85"/>
</filter>
<filter id="filter30_f_109_85" x="114.445" y="52.7762" width="5.18653" height="3.35703" filterUnits="userSpaceOnUse" color-interpolation-filters="sRGB">
<feFlood flood-opacity="0" result="BackgroundImageFix"/>
<feBlend mode="normal" in="SourceGraphic" in2="BackgroundImageFix" result="shape"/>
<feGaussianBlur stdDeviation="0.607392" result="effect1_foregroundBlur_109_85"/>
</filter>
<filter id="filter31_f_109_85" x="111.55" y="47.5076" width="6.47907" height="14.4858" filterUnits="userSpaceOnUse" color-interpolation-filters="sRGB">
<feFlood flood-opacity="0" result="BackgroundImageFix"/>
<feBlend mode="normal" in="SourceGraphic" in2="BackgroundImageFix" result="shape"/>
<feGaussianBlur stdDeviation="0.607392" result="effect1_foregroundBlur_109_85"/>
</filter>
<filter id="filter32_f_109_85" x="99.6765" y="46.3831" width="11.7834" height="7.48572" filterUnits="userSpaceOnUse" color-interpolation-filters="sRGB">
<feFlood flood-opacity="0" result="BackgroundImageFix"/>
<feBlend mode="normal" in="SourceGraphic" in2="BackgroundImageFix" result="shape"/>
<feGaussianBlur stdDeviation="0.607392" result="effect1_foregroundBlur_109_85"/>
</filter>
<filter id="filter33_f_109_85" x="100.363" y="50.4873" width="5.3266" height="6.02085" filterUnits="userSpaceOnUse" color-interpolation-filters="sRGB">
<feFlood flood-opacity="0" result="BackgroundImageFix"/>
<feBlend mode="normal" in="SourceGraphic" in2="BackgroundImageFix" result="shape"/>
<feGaussianBlur stdDeviation="0.607392" result="effect1_foregroundBlur_109_85"/>
</filter>
<filter id="filter34_f_109_85" x="94.0275" y="50.1911" width="16.7427" height="11.2105" filterUnits="userSpaceOnUse" color-interpolation-filters="sRGB">
<feFlood flood-opacity="0" result="BackgroundImageFix"/>
<feBlend mode="normal" in="SourceGraphic" in2="BackgroundImageFix" result="shape"/>
<feGaussianBlur stdDeviation="0.607392" result="effect1_foregroundBlur_109_85"/>
</filter>
<filter id="filter35_f_109_85" x="90.2989" y="36.1346" width="4.4007" height="3.27857" filterUnits="userSpaceOnUse" color-interpolation-filters="sRGB">
<feFlood flood-opacity="0" result="BackgroundImageFix"/>
<feBlend mode="normal" in="SourceGraphic" in2="BackgroundImageFix" result="shape"/>
<feGaussianBlur stdDeviation="0.607392" result="effect1_foregroundBlur_109_85"/>
</filter>
<filter id="filter36_f_109_85" x="94.1489" y="34.7316" width="4.40039" height="3.27878" filterUnits="userSpaceOnUse" color-interpolation-filters="sRGB">
<feFlood flood-opacity="0" result="BackgroundImageFix"/>
<feBlend mode="normal" in="SourceGraphic" in2="BackgroundImageFix" result="shape"/>
<feGaussianBlur stdDeviation="0.607392" result="effect1_foregroundBlur_109_85"/>
</filter>
<filter id="filter37_f_109_85" x="90.8857" y="21.4723" width="10.1215" height="6.53644" filterUnits="userSpaceOnUse" color-interpolation-filters="sRGB">
<feFlood flood-opacity="0" result="BackgroundImageFix"/>
<feBlend mode="normal" in="SourceGraphic" in2="BackgroundImageFix" result="shape"/>
<feGaussianBlur stdDeviation="0.607392" result="effect1_foregroundBlur_109_85"/>
</filter>
<filter id="filter38_f_109_85" x="86.2817" y="23.2834" width="9.74463" height="9.23609" filterUnits="userSpaceOnUse" color-interpolation-filters="sRGB">
<feFlood flood-opacity="0" result="BackgroundImageFix"/>
<feBlend mode="normal" in="SourceGraphic" in2="BackgroundImageFix" result="shape"/>
<feGaussianBlur stdDeviation="0.607392" result="effect1_foregroundBlur_109_85"/>
</filter>
<filter id="filter39_f_109_85" x="91.9818" y="11.6306" width="41.7672" height="41.812" filterUnits="userSpaceOnUse" color-interpolation-filters="sRGB">
<feFlood flood-opacity="0" result="BackgroundImageFix"/>
<feBlend mode="normal" in="SourceGraphic" in2="BackgroundImageFix" result="shape"/>
<feGaussianBlur stdDeviation="5.06176" result="effect1_foregroundBlur_109_85"/>
</filter>
<filter id="filter40_f_109_85" x="100.517" y="19.4647" width="25.666" height="32.4319" filterUnits="userSpaceOnUse" color-interpolation-filters="sRGB">
<feFlood flood-opacity="0" result="BackgroundImageFix"/>
<feBlend mode="normal" in="SourceGraphic" in2="BackgroundImageFix" result="shape"/>
<feGaussianBlur stdDeviation="2.27764" result="effect1_foregroundBlur_109_85"/>
</filter>
<radialGradient id="paint0_radial_109_85" cx="0" cy="0" r="1" gradientUnits="userSpaceOnUse" gradientTransform="translate(112.866 34.6139) scale(14.2593 14.289)">
<stop stop-color="white" stop-opacity="0"/>
<stop offset="0.704" stop-color="#0046AF" stop-opacity="0"/>
<stop offset="0.868" stop-color="#0044AB" stop-opacity="0.424"/>
<stop offset="0.954" stop-color="#003996" stop-opacity="0.65"/>
<stop offset="1" stop-color="#002C80"/>
</radialGradient>
<radialGradient id="paint1_radial_109_85" cx="0" cy="0" r="1" gradientUnits="userSpaceOnUse" gradientTransform="translate(119.587 25.9918) scale(21.867 21.9124)">
<stop stop-color="#5BCAFF"/>
<stop offset="1" stop-color="#0071DE"/>
</radialGradient>
<linearGradient id="paint2_linear_109_85" x1="126.309" y1="25.489" x2="116.072" y2="30.4544" gradientUnits="userSpaceOnUse">
<stop stop-color="white"/>
<stop offset="1" stop-color="white" stop-opacity="0"/>
</linearGradient>
<clipPath id="clip0_109_85">
<rect width="154" height="69" fill="white"/>
</clipPath>
</defs>
</svg>
