<svg width="18" height="22" viewBox="0 0 18 22" fill="none" xmlns="http://www.w3.org/2000/svg">
<path fill-rule="evenodd" clip-rule="evenodd" d="M8.55851 2.83337C6.81659 2.83337 5.14756 3.52007 3.91819 4.73992C2.68908 5.95952 2 7.61198 2 9.33337C2 11.8452 3.65206 14.3088 5.50253 16.247C6.40684 17.1941 7.3146 17.9701 7.99746 18.5097C8.20922 18.677 8.39857 18.821 8.55851 18.9396C8.71845 18.821 8.9078 18.677 9.11956 18.5097C9.80242 17.9701 10.7102 17.1941 11.6145 16.247C13.465 14.3088 15.117 11.8452 15.117 9.33337C15.117 7.61199 14.4279 5.95952 13.1988 4.73992C11.9695 3.52007 10.3004 2.83337 8.55851 2.83337ZM8.55851 20.1667C8.00679 21.0007 8.00655 21.0006 8.00627 21.0004L8.00366 20.9987L7.99778 20.9947L7.97795 20.9814C7.96121 20.9702 7.93748 20.9541 7.90725 20.9333C7.84678 20.8917 7.7602 20.8314 7.65123 20.7533C7.4334 20.5972 7.12551 20.3697 6.75753 20.0789C6.02316 19.4987 5.0413 18.6601 4.05598 17.6281C2.12719 15.6079 0 12.6549 0 9.33337C5.96046e-08 7.07651 0.903601 4.91367 2.50948 3.32022C4.1151 1.72703 6.29115 0.833374 8.55851 0.833374C10.8259 0.833374 13.0019 1.72703 14.6075 3.32022C16.2134 4.91367 17.117 7.07651 17.117 9.33337C17.117 12.6549 14.9898 15.6079 13.061 17.6281C12.0757 18.6601 11.0939 19.4987 10.3595 20.0789C9.99151 20.3697 9.68362 20.5972 9.46579 20.7533C9.35682 20.8314 9.27024 20.8917 9.20977 20.9333C9.17953 20.9541 9.15581 20.9702 9.13907 20.9814L9.11924 20.9947L9.11336 20.9987L9.11145 20.9999C9.11117 21.0001 9.11023 21.0007 8.55851 20.1667ZM8.55851 20.1667L9.11023 21.0007C8.7757 21.222 8.3408 21.2217 8.00627 21.0004L8.55851 20.1667ZM8.55851 7.83337C7.71197 7.83337 7.03901 8.51226 7.03901 9.33337C7.03901 10.1545 7.71197 10.8334 8.55851 10.8334C9.40505 10.8334 10.078 10.1545 10.078 9.33337C10.078 8.51226 9.40505 7.83337 8.55851 7.83337ZM5.03901 9.33337C5.03901 7.39306 6.62208 5.83337 8.55851 5.83337C10.4949 5.83337 12.078 7.39306 12.078 9.33337C12.078 11.2737 10.4949 12.8334 8.55851 12.8334C6.62208 12.8334 5.03901 11.2737 5.03901 9.33337Z" fill="#FF7D23"/>
</svg>
