<svg width="21" height="30" viewBox="0 0 21 30" fill="none" xmlns="http://www.w3.org/2000/svg">
<path d="M4.24267 0C8.2499 0 12.2571 0 16.2643 0C16.2784 0.0125241 16.2909 0.0328759 16.3072 0.0367896C17.8836 0.433648 18.657 1.42932 18.657 3.06606C18.657 4.58931 18.657 6.11178 18.657 7.63503V7.97866H20.5008V21.1055H18.657V21.4429C18.657 23.3074 18.6585 25.1727 18.657 27.0373C18.6554 28.7985 17.4618 29.9984 15.7093 29.9984C12.0724 30 8.43544 30 4.79932 29.9984C3.0483 29.9984 1.85237 28.7961 1.85081 27.0373C1.84925 25.1626 1.85081 23.2878 1.85081 21.4139V21.0844H0V7.95752H1.85003C1.85003 7.81897 1.85003 7.71252 1.85003 7.60606C1.85003 6.00454 1.83677 4.4038 1.85549 2.80228C1.86796 1.70798 2.37471 0.877472 3.3274 0.346762C3.60962 0.189428 3.93706 0.1135 4.24345 0L4.24267 0ZM2.79726 25.2917H17.6996V21.1079H2.79726V25.2917ZM2.79726 7.94891H17.6996V4.70203H2.79726V7.94891V7.94891ZM19.5777 9.86432H0.930082V10.7653H19.5777V9.86432V9.86432ZM11.6529 27.6635C11.6568 26.8948 11.0386 26.2608 10.2761 26.2506C9.49884 26.2404 8.85722 26.8705 8.8541 27.6478C8.85098 28.4157 9.46921 29.0505 10.2309 29.0615C11.0074 29.0724 11.649 28.4415 11.6529 27.6642V27.6635ZM7.46794 13.4501C6.63375 14.2861 5.80424 15.1174 5.00435 15.9197C5.82373 16.7424 6.65792 17.5792 7.45079 18.3745C7.64803 18.1999 7.87022 18.0027 8.14075 17.7631C7.51316 17.1369 6.90194 16.5279 6.26265 15.89C6.86686 15.2865 7.47808 14.6767 8.07682 14.0779C7.86632 13.8603 7.66362 13.6521 7.46794 13.4501V13.4501ZM14.274 15.9589C13.6433 16.5867 13.0274 17.2011 12.4645 17.7608C12.6812 17.9987 12.88 18.2187 13.0391 18.3933C13.8686 17.5674 14.7012 16.7393 15.5097 15.9346C14.6942 15.1158 13.8655 14.2838 13.0414 13.4564C12.8512 13.6513 12.6438 13.8634 12.4123 14.1006C13.0149 14.7018 13.6253 15.3115 14.274 15.9589V15.9589ZM9.52924 18.4394C10.2995 16.8919 11.0518 15.3804 11.8127 13.8517C11.5173 13.7038 11.2592 13.5746 10.9786 13.4345C10.2122 14.9726 9.45908 16.4857 8.69506 18.0199C8.97962 18.1631 9.23767 18.2931 9.52924 18.4394V18.4394ZM12.5627 2.80697V1.89506H7.94195V2.80697H12.5627Z" fill="white"/>
</svg>
