<svg width="21" height="21" viewBox="0 0 21 21" fill="none" xmlns="http://www.w3.org/2000/svg">
<path fill-rule="evenodd" clip-rule="evenodd" d="M6.5159 0.076894C6.88862 0.232129 7.13142 0.596273 7.13142 1.00003V4.05503C7.13142 4.86292 6.80791 5.63614 6.23459 6.20502C5.66154 6.77363 4.88595 7.09169 4.07886 7.09169H1.00003C0.594861 7.09169 0.229733 6.84721 0.0754088 6.47258C-0.0789153 6.09795 0.00806701 5.66723 0.295676 5.38185L5.42706 0.290179C5.71367 0.00579292 6.14318 -0.0783408 6.5159 0.076894ZM13.9572 0.076894C14.3299 -0.0783408 14.7594 0.00579292 15.046 0.290179L20.1774 5.38185C20.465 5.66723 20.552 6.09795 20.3977 6.47258C20.2433 6.84721 19.8782 7.09169 19.473 7.09169H16.3942C15.5871 7.09169 14.8115 6.77363 14.2385 6.20502C13.6652 5.63614 13.3416 4.86292 13.3416 4.05503V1.00003C13.3416 0.596273 13.5844 0.232129 13.9572 0.076894ZM3.42757 5.09169H4.07886C4.36052 5.09169 4.62908 4.9806 4.82589 4.78532C5.02243 4.5903 5.13142 4.32745 5.13142 4.05503V3.40104L3.42757 5.09169ZM15.3416 3.40104V4.05503C15.3416 4.32745 15.4506 4.5903 15.6472 4.78532C15.844 4.9806 16.1125 5.09169 16.3942 5.09169H17.0455L15.3416 3.40104ZM3.01e-05 14.2384C3.01e-05 13.6861 0.447745 13.2384 1.00003 13.2384H4.07886C4.88596 13.2384 5.66154 13.5564 6.23459 14.125C6.80791 14.6939 7.13142 15.4671 7.13142 16.275V19.33C7.13142 19.8823 6.6837 20.33 6.13142 20.33C5.57913 20.33 5.13142 19.8823 5.13142 19.33V16.275C5.13142 16.0026 5.02243 15.7398 4.82589 15.5447C4.62908 15.3495 4.36052 15.2384 4.07886 15.2384H1.00003C0.447745 15.2384 3.01e-05 14.7906 3.01e-05 14.2384ZM16.3942 15.2384C16.1125 15.2384 15.844 15.3495 15.6472 15.5447C15.4506 15.7398 15.3416 16.0026 15.3416 16.275V16.929L17.0455 15.2384H16.3942ZM14.2385 14.125C14.8115 13.5564 15.5871 13.2384 16.3942 13.2384H19.473C19.8782 13.2384 20.2433 13.4828 20.3977 13.8575C20.552 14.2321 20.465 14.6628 20.1774 14.9482L15.046 20.0399C14.7594 20.3243 14.3299 20.4084 13.9572 20.2532C13.5844 20.0979 13.3416 19.7338 13.3416 19.33V16.275C13.3416 15.4671 13.6652 14.6939 14.2385 14.125Z" fill="#FF7D23"/>
</svg>
