<svg width="30" height="34" viewBox="0 0 30 34" fill="none" xmlns="http://www.w3.org/2000/svg">
<path d="M15 6.75166C10.1317 6.75166 6.17411 11.1462 6.16741 16.552C6.16741 18.4035 6.63616 20.2104 7.52009 21.7644L7.72768 22.1362L6.83705 25.75L10.1786 24.7759L10.5 24.9916C11.8527 25.8839 13.4062 26.3597 14.9933 26.3597H15C19.8616 26.3597 23.9263 21.9652 23.9263 16.5594C23.9263 13.942 22.9085 11.4808 21.2411 9.6293C19.567 7.77036 17.3571 6.75166 15 6.75166ZM20.1897 20.7606C19.9688 21.4521 18.9107 22.0767 18.4018 22.1585C17.558 22.2998 16.9018 22.2255 15.221 21.4224C12.5625 20.1434 10.8214 17.1691 10.6875 16.9758C10.5536 16.7825 9.60268 15.3771 9.60268 13.9272C9.60268 12.4772 10.2857 11.7634 10.5335 11.4659C10.7746 11.1685 11.0625 11.0941 11.2433 11.0941C11.4174 11.0941 11.5982 11.0941 11.7522 11.1016C11.9129 11.109 12.1339 11.0347 12.3482 11.6072C12.5692 12.1946 13.0982 13.6446 13.1652 13.7933C13.2321 13.942 13.279 14.1131 13.1853 14.3064C12.6763 15.4366 12.1339 15.392 12.4085 15.9125C13.433 17.8681 14.4576 18.5448 16.0179 19.4147C16.2857 19.5635 16.4397 19.5412 16.5938 19.3404C16.7478 19.1471 17.2567 18.4778 17.4308 18.1878C17.6049 17.8904 17.7857 17.9425 18.0268 18.0391C18.2679 18.1358 19.5737 18.8496 19.8415 18.9983C20.1094 19.1471 20.2835 19.2214 20.3504 19.3404C20.4107 19.4817 20.4107 20.0765 20.1897 20.7606ZM26.7857 0H3.21429C1.43973 0 0 1.59869 0 3.56916V29.743C0 31.7135 1.43973 33.3122 3.21429 33.3122H26.7857C28.5603 33.3122 30 31.7135 30 29.743V3.56916C30 1.59869 28.5603 0 26.7857 0ZM14.9933 28.3451C13.2121 28.3451 11.4643 27.8469 9.91741 26.91L4.28571 28.5533L5.79241 22.4411C4.86161 20.6565 4.37277 18.6266 4.37277 16.5445C4.37946 10.0457 9.14062 4.75888 14.9933 4.75888C17.8326 4.75888 20.4978 5.98578 22.5067 8.21651C24.5089 10.4472 25.7143 13.4067 25.7143 16.5594C25.7143 23.0583 20.846 28.3451 14.9933 28.3451Z" fill="#6BE778"/>
</svg>
